<?xml version="1.0" encoding="UTF-8" standalone="no"?>
<svg
   version="1.1"
   width="928.19885"
   height="584.24854"
   viewBox="0 0 928.19885 584.24854"
   xml:space="preserve"
   id="svg4"
   xmlns="http://www.w3.org/2000/svg">
<desc
   id="desc1">Created with Fabric.js 5.3.0</desc>
<defs
   id="defs1">
</defs>
<g
   transform="translate(467.76401,295.78885)"
   id="background-logo">

</g>
<g
   transform="matrix(2.1767636,0,0,2.1767636,466.83919,178.25999)"
   id="logo-logo">
<g
   paint-order="stroke"
   id="g2">
		<g
   transform="scale(1.6396122)"
   id="g1">
<path
   style="opacity:1;fill:#c26002;fill-rule:nonzero;stroke:none;stroke-width:1;stroke-linecap:butt;stroke-linejoin:miter;stroke-miterlimit:4;stroke-dasharray:none;stroke-dashoffset:0"
   paint-order="stroke"
   transform="translate(-187.5,-150)"
   d="m 285.84592,144.66373 c -3.07453,-4.20488 -6.0872,-2.71134 -10.42301,-2.10571 -1.19203,0.16651 -2.40799,0.2196 -3.6003,0.387 -3.61067,0.50691 -7.20322,1.20809 -10.8416,1.52668 l 1.51042,-0.79901 c 0.99004,-0.64681 2.03489,-1.37257 2.93057,-2.14417 0.80525,-0.69369 1.69969,-1.40328 1.80253,-2.549 0.0273,-0.30494 -0.0903,-0.5851 -0.0641,-0.78524 0.0909,-0.69509 0.66617,-0.87447 0.50239,-2.08074 -0.0354,-0.26109 -0.34756,-0.87473 -0.33668,-0.92262 0.0316,-0.13939 0.88776,-0.46805 0.91214,-1.27477 0.046,-1.52111 -2.16018,-1.416 -1.98018,0.24554 0.0228,0.21053 0.27395,0.67473 0.25039,0.7037 -0.0796,0.0979 -0.67917,0.17991 -0.79667,0.7002 -0.0892,0.39492 0.0782,1.93678 0.0272,2.02418 -0.0211,0.0361 -0.58749,0.4817 -0.65612,0.51857 -0.38818,0.20845 -0.9092,0.27502 -1.37642,0.52666 -0.7526,0.40535 -1.33613,1.04069 -2.00876,1.52542 -3.96828,2.85987 -8.87972,2.67409 -13.38331,4.28763 -2.3353,0.83668 -4.41098,2.26219 -6.81635,2.92438 0.3111,-0.84849 -0.29206,-1.63166 -1.00811,-2.02853 -0.68858,-0.38165 -1.20236,-0.24953 -1.83055,-0.88803 -0.0782,-0.0795 -0.19881,-0.076 -0.15225,-0.25465 2.81805,-0.36342 5.41292,-1.62182 8.13579,-2.33085 1.16944,-0.30452 2.46745,-0.38912 3.57596,-0.77383 2.05167,-0.71207 3.45929,-2.92492 5.54641,-3.69662 0.80049,-0.29598 1.07559,0.0203 1.82861,0.0833 2.67793,0.22387 3.32516,-1.53354 5.17041,-2.78082 0.62059,-0.41947 0.92671,-0.36499 1.45146,-0.63283 0.85258,-0.4352 1.2804,-2.03893 0.16415,-2.05942 -0.8159,-0.015 -0.96557,0.91394 -1.44833,1.40959 -1.34853,1.3845 -4.01207,1.17293 -5.78449,2.2807 -0.38725,0.24203 -0.70103,0.63855 -1.1021,0.80096 -0.50858,0.20595 -1.13562,0.19408 -1.66539,0.32822 -2.81755,0.71338 -5.55596,1.65208 -8.35133,2.43247 -2.45971,0.68668 -4.84175,1.68874 -7.32082,2.37556 -0.9899,0.27425 -2.06504,0.35668 -2.96354,0.83801 -1.53692,-0.76976 -3.38254,-1.21715 -4.8971,-1.98779 -0.0855,-0.0435 -0.21509,-0.052 -0.22403,-0.18277 0.92616,-0.30823 1.98838,-0.57868 2.87088,-0.98138 0.8873,-0.40486 1.54149,-1.08946 2.45197,-1.44471 1.15755,-0.45161 2.15728,-0.28227 3.28671,-0.60993 0.76339,-0.22146 1.43505,-0.69498 2.12519,-0.95592 0.41685,-0.1576 1.02674,-0.17667 1.38375,-0.33806 0.36876,-0.16669 0.44542,-0.55224 -0.0198,-0.57222 -1.19014,0.28343 -2.4373,0.33538 -3.61906,0.64886 -1.55457,0.41237 -3.0483,1.32882 -4.71526,1.44687 -2.02102,0.14311 -6.04065,0.11647 -7.6156,1.4465 -0.13538,0.11434 -0.2089,0.39838 -0.37909,0.43973 -0.20388,0.0496 -1.7603,-0.30959 -2.15967,-0.34825 -2.66313,-0.25786 -5.31676,0.11088 -7.97427,0.26982 -0.43509,0.026 -0.87775,-0.0158 -1.31266,-3e-5 l 1.17885,-0.76774 c 0.20088,-0.0535 0.25145,-0.45888 0.28344,-0.48621 0.13723,-0.11726 0.84659,0.16683 0.71273,-0.41816 -0.12091,-0.52825 -0.65073,-0.0424 -0.84337,-0.0688 -0.13552,-0.0186 -0.28671,-0.23907 -0.5478,-0.22546 -0.75569,0.0394 -3.70613,1.53033 -4.72471,1.87826 -2.03305,0.69445 -3.85073,0.9704 -5.98155,1.17745 7.8e-4,-0.15513 0.24675,-0.35564 0.35908,-0.45649 0.71522,-0.64204 1.46953,-1.24681 2.13442,-1.94356 0.78473,-0.82237 1.37019,-1.6848 1.99077,-2.6308 l -0.13386,-0.0437 c -0.58758,0.29734 -1.17889,0.44426 -1.77044,0.76737 -1.96722,1.07448 -3.78888,2.89661 -5.52521,4.30615 -0.0801,-0.092 1.02909,-1.92016 1.16152,-2.14517 3.9651,-6.7342 9.74978,-13.56291 16.92724,-16.96477 2.0649,-0.9787 4.51092,-1.31669 6.68147,-2.01806 0.32313,-0.1866 0.91048,-1.02141 0.87342,-1.38715 -0.0514,-0.5078 -0.87047,-1.19033 -1.39914,-1.23191 -0.81119,-0.0638 -3.65709,0.83137 -4.60034,1.11781 -6.27823,1.9065 -12.09329,7.34692 -15.91282,12.54193 -1.27952,1.74028 -2.40282,3.60621 -3.64072,5.37507 -0.0427,-1.18951 -0.0828,-2.39272 -0.18286,-3.57876 -0.0749,-0.88759 -0.36448,-1.95471 -0.36172,-2.81003 0.001,-0.4326 0.31484,-1.06161 0.36167,-1.54122 0.10201,-1.04497 0.0869,-3.02171 0.004,-4.08038 -0.0727,-0.92802 -0.60261,-1.93551 -0.63879,-2.80992 -0.0528,-1.27551 0.26809,-2.75934 0.18622,-4.16838 -0.20351,-3.5018 -1.96335,-4.92443 -3.576,-7.66089 -0.88711,-1.50524 -0.79211,-3.11666 -1.46658,-4.42375 -0.54218,-1.05071 -1.91795,-0.76088 -1.9475,0.39808 -0.0161,0.63292 0.37287,0.85354 -0.3577,1.35586 -0.21052,0.14473 -0.51742,0.17708 -0.71453,0.37293 -0.45805,0.45511 -0.29579,0.97097 -0.40979,1.49323 -0.48585,2.22624 -1.66838,4.54699 -1.49884,6.83607 0.0413,0.55852 0.13225,1.38149 0.86171,1.41198 1.19346,0.0499 0.79436,-2.00348 0.86047,-2.76873 0.10012,-1.15896 0.56301,-4.26661 0.98953,-5.26328 0.10916,-0.25512 0.37536,-0.4386 0.43786,-0.73979 0.079,-0.38035 -0.0519,-0.62698 -0.0731,-0.97332 -0.006,-0.0985 -0.0582,-0.34369 0.0932,-0.31945 -0.0286,0.60264 0.44188,1.62934 0.43164,2.14644 -0.003,0.15618 -0.22614,0.64083 -0.2526,0.97616 -0.11178,1.41542 0.18129,2.8537 0.19291,4.2624 0.0219,2.67851 -0.81741,8.49535 1.00341,10.58753 0.0808,0.0929 0.0875,0.19016 0.25615,0.15091 0.0958,-0.4798 0.35416,-0.90491 0.4794,-1.37894 0.25919,-0.98103 0.32972,-2.36835 0.24951,-3.38183 -0.0921,-1.16337 -0.72868,-1.89036 -1.04508,-2.94224 -0.79681,-2.64931 -0.63561,-5.42504 -0.86028,-8.15502 l 0.94893,2.08548 c 1.2183,1.92347 2.35793,3.86189 2.99193,6.07006 0.25403,0.88471 0.35383,1.80839 0.67769,2.67525 0.3596,0.96241 0.99797,1.70945 1.09284,2.80383 0.14289,1.64825 -0.14954,3.51742 -0.002,5.16716 0.0881,0.98346 0.73495,1.67559 0.7314,2.7197 -0.004,1.12112 -0.21439,2.12488 -0.1854,3.3496 0.0254,1.07158 -0.88531,3.94502 -1.2272,5.12365 -0.0559,0.19281 -0.33336,1.18028 -0.40403,1.22715 -0.18659,0.12369 -0.75182,-0.001 -1.00097,0.0421 0.0322,-0.55451 -0.0209,-1.09226 -0.1328,-1.63425 -0.34369,-1.6639 -1.3665,-2.89735 -1.49672,-4.66548 -0.1222,-1.65981 0.31866,-2.83322 0.36494,-4.34476 0.0161,-0.52622 0.0865,-1.28333 -0.565,-1.4399 -1.0242,-0.24613 -1.06057,1.98667 -0.95782,2.59271 0.0626,0.36916 0.3613,0.79991 0.46054,1.17068 0.26427,0.98707 0.0828,1.94003 0.15364,2.92747 0.0399,0.55668 0.23629,1.16371 0.27418,1.71946 0.0797,1.16921 -0.0563,2.43681 -0.015,3.61681 -0.68835,0.58538 -0.96335,-0.0862 -1.17166,-0.70835 -0.51844,-1.54829 -1.3972,-3.50635 -2.21337,-4.94562 -0.43501,-0.7671 -1.29077,-1.56789 -1.52568,-2.37101 -0.63423,-2.16846 0.37089,-5.13356 -0.49801,-7.11403 -0.37651,-0.85811 -1.14115,-0.79913 -1.42321,0.0607 -0.46805,1.42691 0.5721,2.95598 0.68014,4.39778 0.038,0.5067 -0.0312,1.03066 0.002,1.53851 0.0538,0.82251 0.30506,1.66221 0.13548,2.49248 -0.66097,-0.70827 -1.45593,-1.27514 -2.24587,-1.83202 -4.87798,-3.43871 -10.20148,-6.23217 -15.45988,-9.00758 -2.14506,-1.13219 -4.53466,-2.65432 -6.71314,-3.61757 -1.69526,-0.74957 -3.06739,0.35507 -2.43002,2.15817 0.4793,1.35597 2.03199,4.49116 2.80492,5.71338 0.79966,1.26445 2.51465,2.33317 3.56383,3.41393 -0.0148,-0.95453 -0.51032,-1.87692 -0.72632,-2.80787 -0.31645,-1.36389 -0.32535,-1.83818 -0.90256,-3.17536 -0.0719,-0.16667 -0.23965,-0.4607 -0.18452,-0.63102 1.32267,0.62331 2.60593,1.32054 3.91002,1.98025 4.01465,2.03083 7.9763,4.17407 11.87396,6.43132 1.40767,0.81523 2.90421,1.71795 4.22697,2.66016 0.57168,0.4072 2.20162,1.56908 2.55065,2.07099 0.25814,0.37116 0.51618,1.54107 0.73122,2.07803 0.18092,0.4518 0.36752,0.93904 0.67631,1.3173 0.0144,0.0674 -0.0929,0.061 -0.134,0.0438 -0.40241,-0.16837 -0.9421,-0.61104 -1.43564,-0.83032 -1.1234,-0.49916 -2.34945,-0.73202 -3.47502,-1.23722 -0.45127,-0.20253 -3.9479,-2.08065 -4.10703,-1.91828 -0.002,0.0705 -0.01,0.14267 0.0136,0.21192 0.11376,0.33991 1.5973,1.18612 1.97178,1.47193 0.58445,0.44608 1.01272,0.94046 1.64663,1.34383 0.89421,0.56904 1.86499,0.79354 2.77182,1.30606 1.07597,0.60808 1.89043,1.64589 3.11081,2.01046 -0.0937,0.11868 -0.15893,0.69322 -0.18516,0.71952 -0.0248,0.0248 -0.47497,0.0113 -0.58399,0.003 -3.00912,-0.24087 -6.14058,-0.94959 -8.92872,-1.94517 -1.42777,-0.50982 -3.00327,-0.43706 -4.19692,-1.24034 -0.47672,-0.32084 -0.87024,-0.73875 -1.39232,-1.05443 -0.38715,-0.2341 -1.71033,-1.06271 -1.91845,-0.31581 -0.186,0.66733 1.11155,0.83827 1.58869,1.09869 0.58859,0.32126 1.04438,0.85182 1.63372,1.17552 l 2.38383,1.19568 H 162.5668 l 1.90034,-2.04164 c 0.76122,-0.96309 1.10565,-2.15998 1.64635,-3.24714 0.24864,-0.49987 1.278,-2.05705 1.26219,-2.45695 -0.02,-0.50383 -0.33419,-0.62574 -0.765,-0.39814 -0.58625,0.30972 -1.54246,2.76217 -1.97755,3.45898 -1.1081,1.77459 -3.62446,3.09186 -5.12026,4.57535 -1.8565,-0.0483 -3.69973,-0.17613 -5.55494,-0.16323 l 3.94653,-2.62216 c 0.22591,-0.26746 0.2366,-0.60776 -0.18476,-0.64689 -0.51369,-0.0477 -3.56715,1.40009 -4.41725,1.663 -1.11445,0.34467 -2.39651,0.49397 -3.47128,0.87848 -0.65266,0.2335 -1.12694,0.79898 -1.80754,0.72767 l -0.68028,-0.17926 c 0.7278,-0.25521 1.5602,-1.60383 2.17834,-1.85469 0.19613,-0.0796 0.41315,-0.0395 0.61224,-0.11274 1.60749,-0.59104 2.82681,-1.50778 4.30676,-2.3085 2.97423,-1.60919 6.32796,-3.02619 9.71318,-3.42678 0.90726,-0.10737 3.42523,0.14568 3.57605,-1.14266 0.13589,-1.16049 -1.4786,-1.27351 -2.30482,-1.30908 -1.88292,-0.0811 -4.02775,0.40601 -5.80515,0.99894 -2.4256,0.80918 -4.84829,1.94667 -6.97648,3.35419 -0.0544,-0.65939 -0.48433,-0.91147 -1.10925,-0.65592 -1.7373,1.36833 -3.38236,2.83525 -5.05498,4.27868 -0.4717,0.40706 -1.1547,0.79389 -1.58708,1.22217 -0.13192,0.13066 -0.62104,0.8646 -0.67594,0.8646 h -2.12957 c 0.64262,-0.82829 1.29215,-1.65366 1.85004,-2.54504 1.19084,-1.90267 2.2875,-4.81203 3.99285,-6.24724 1.1694,-0.98416 1.62935,-1.01292 2.32922,-2.56425 0.28888,-0.64037 1.08338,-2.26397 1.14082,-2.84746 0.0101,-0.10285 0.0788,-0.27631 -0.11349,-0.20358 -0.32677,0.1236 -1.04204,0.97899 -1.36346,1.26496 -0.29179,0.25954 -0.74067,0.45978 -0.99728,0.72452 -0.69807,0.72013 -0.87554,2.02791 -1.26676,2.90179 -0.62505,1.3964 -3.14114,3.07929 -4.25923,4.34967 -0.96709,1.09883 -1.68784,2.40814 -2.49249,3.62541 -0.23863,0.0238 -0.14649,0.005 -0.17811,-0.13466 -0.08,-0.35342 -0.15414,-0.72446 -0.18844,-1.08674 1.29036,-3.49711 2.97902,-6.84001 4.7614,-10.10738 0.83005,-1.52153 1.68826,-3.03129 2.76837,-4.39065 2.33792,-2.94232 5.53157,-5.52173 8.60555,-7.6599 0.10408,0.7182 0.0737,1.4921 -1.4e-4,2.21919 -0.19001,1.86975 -0.9185,3.58754 -0.72306,5.52795 0.0361,0.35813 0.225,0.68988 0.26339,1.00518 0.19964,1.64037 -1.92813,2.75591 -1.35074,4.47814 0.8472,-0.40857 1.1783,-1.2686 1.33489,-2.15262 0.0867,-0.48933 0.0248,-0.98355 0.16221,-1.47012 0.24606,-0.87151 0.87144,-1.45146 1.02991,-2.41278 0.41827,-2.53699 -0.97086,-5.37243 0.35397,-7.80185 0.4239,-0.77729 1.19185,-1.14226 0.6116,-2.20696 -0.93275,-1.71152 -3.02959,0.0194 -4.06578,0.7464 -3.89038,2.72934 -8.03253,6.56287 -10.40844,10.7061 -1.20203,2.09621 -2.396,4.61992 -3.41518,6.82492 -0.40518,0.87663 -0.74541,1.78169 -1.14598,2.66004 -0.49963,-1.45995 -0.19853,-3.28103 -0.62916,-4.71657 -0.0997,-0.33223 -0.26791,-0.63709 -0.54453,-0.26352 -0.25652,0.34643 -0.0496,0.51022 -0.0449,0.85376 0.04,3.00525 -0.5891,5.98726 -0.0958,8.97588 -0.11142,0.28077 0.21881,1.83366 0.0965,1.90472 -0.16525,0.096 -0.44339,0.0817 -0.53913,-0.10296 -0.41588,-0.91828 -1.02305,-1.81588 -1.44856,-2.71985 -0.41172,-0.8747 -1.26505,-3.56 -1.82036,-4.0699 -0.089,-0.0817 -0.12875,-0.16576 -0.27404,-0.13249 -0.0525,0.17139 -0.078,0.26895 -0.0557,0.45309 0.16654,1.38138 0.97073,3.9875 1.36821,5.43744 0.0932,0.33999 0.27883,0.70862 0.40744,1.04254 -0.10348,0.0779 -0.37333,0.0664 -0.49543,0.0422 -0.10916,-0.0217 -1.71103,-1.07597 -1.86314,-1.21785 -1.50258,-1.40146 -2.6151,-3.01061 -3.45607,-4.881 -3.10067,-6.89629 -4.82907,-15.77623 -3.21697,-23.27647 0.0225,-0.10483 0.0115,-0.36038 0.15096,-0.34564 0.0257,3.19826 1.87776,5.95661 2.60233,8.95223 0.6092,2.51877 0.59312,6.70696 1.98318,8.70999 0.14981,0.21586 0.90209,1.11096 1.08043,1.18556 0.18517,0.0774 0.1275,-0.12574 0.13469,-0.22442 0.19139,-2.62041 -0.97262,-4.73012 -1.49847,-7.11183 -0.28469,-1.28946 -0.36582,-2.5895 -0.70218,-3.91946 -0.5407,-2.13795 -1.54969,-4.0685 -1.96699,-6.23321 0.56057,0.6089 1.37157,1.0748 1.8482,1.73038 0.79958,1.09983 1.00074,2.50612 1.79119,3.5554 1.04526,1.38743 3.35299,3.69711 3.95007,5.20258 0.32221,0.81237 0.30829,2.08738 1.19932,2.46987 -4.2e-4,-0.37809 0.18756,-0.65057 0.1894,-1.04202 0.0101,-2.13779 -2.30699,-3.60887 -3.13275,-5.48354 -0.30091,-0.68317 -0.43722,-1.44915 -0.78888,-2.11094 -0.58643,-1.10356 -1.70314,-1.72962 -2.10975,-2.96497 -0.15193,-0.46154 -0.12409,-0.93024 -0.25477,-1.37638 -0.27611,-0.94235 -2.39149,-2.71102 -3.10519,-3.5101 -0.52069,-0.58298 -0.48746,-0.82296 -1.22241,-1.49654 -0.29386,-0.26932 -0.36517,-0.64693 -0.87807,-0.75263 -2.3554,-0.48543 -1.94017,2.34153 -2.10989,3.73892 -0.19725,1.62425 -0.63824,3.24749 -0.72771,4.89074 -0.22288,4.09233 0.42149,8.16215 0.99967,12.19216 -1.70839,-1.49332 -3.98017,-3.32476 -6.16031,-4.03357 -2.32018,-0.75436 -4.67364,-1.44432 -6.97529,-2.26798 -1.46814,-0.52541 -3.21724,-1.84068 -4.7614,-1.67312 -1.00521,0.10907 -1.62137,1.13024 -1.36406,2.08971 1.06439,2.24757 2.31999,4.40152 3.10551,6.77193 0.5755,1.73677 0.78247,3.5568 1.83843,5.09309 -1.40006,-0.37308 -2.84207,-0.89442 -4.23955,-1.24206 -1.47783,-0.36761 -2.68037,-0.29696 -4.13229,-0.48935 -1.10487,-0.14641 -2.803769,-0.9258 -3.792428,-0.60018 -0.847837,0.27922 -1.024014,1.13392 -0.799114,1.92932 0.259611,0.91818 3.135149,5.10195 3.863922,6.10437 0.72425,0.99618 1.56015,1.91484 2.39356,2.81617 -0.65382,-0.0668 -1.19415,0.0643 -1.8122,0.22764 -4.353598,1.15042 -9.3706,4.16029 -10.647173,8.74556 -0.194247,0.69766 -0.184567,1.43596 -0.42915,2.10823 -0.223288,0.61376 -0.717064,1.27053 -0.992071,1.90774 -1.990409,4.6114 -2.180415,10.77103 1.191665,14.78895 0.667096,0.79481 1.544941,1.47075 2.267536,2.2635 1.172765,1.28672 4.788,2.1134 6.478696,1.94745 1.493777,-0.1466 3.009727,-1.33543 4.265277,-1.53438 1.3341,-0.2114 3.44012,0.0521 4.89185,-0.002 0.38817,-0.0144 0.80262,-0.17083 1.2196,-0.0934 -0.78321,1.80741 -1.23435,3.67226 -1.08624,5.6617 0.0671,0.90149 0.44652,1.79204 0.53152,2.64017 0.12972,1.29402 0.004,2.41719 0.32742,3.75048 0.27261,1.12372 1.96294,5.18258 2.82516,5.78376 0.34613,0.24131 0.79819,0.31575 1.13865,0.49253 1.09468,0.56848 1.65447,1.52687 2.67023,2.13266 2.43496,1.45225 3.84456,1.17694 6.39291,1.67226 1.39933,0.27196 2.42947,0.94123 4.05577,0.97368 0.11824,0.002 0.24514,0.01 0.36245,0 0.68697,-0.0561 2.09371,-0.85143 2.65783,-1.28418 0.48926,-0.37531 1.16115,-1.34097 1.51696,-1.56409 0.33894,-0.21253 1.39983,-0.44547 1.89393,-0.64345 3.20466,-1.28411 6.4657,-2.81393 9.48943,-4.46605 0.65548,-0.35816 1.45653,-1.15271 1.95713,-1.39582 0.94413,-0.45851 2.07818,-0.6647 3.11634,-1.23343 0.57592,-0.3155 2.17959,-1.70323 2.38131,-1.7783 0.0821,-0.0305 0.58781,0.0566 0.84424,0.0188 2.02,-0.29792 3.31441,-1.36833 5.05489,-1.92192 2.56909,-0.81713 5.45422,-1.91499 7.56015,-3.67681 0.17101,-0.14306 0.99239,-0.97907 0.53885,-1.07477 -0.0425,-0.009 -0.74661,0.0952 -0.85894,0.12036 -0.90767,0.2033 -2.15691,0.55858 -3.0756,0.8211 -1.57836,0.45102 -2.05992,1.05849 -3.35138,1.81395 -1.31211,0.76752 -2.82585,1.22675 -4.20263,1.86893 -0.90656,0.42286 -2.09878,1.27883 -3.01424,1.42613 -2.94288,0.47354 -5.51603,1.53816 -8.30358,2.57089 l -8.17902,4.05466 c -0.0472,-0.31856 0.14751,-0.61314 0.13073,-0.93827 -0.0131,-0.25618 -0.3583,-1.4206 -0.54006,-1.55089 -0.50618,-0.36291 -0.81409,0.0482 -0.94989,0.0409 -0.27026,-0.0145 -0.14709,-1.33221 -0.0968,-1.54508 0.14151,-0.59894 0.69816,-0.8347 0.76685,-1.77254 0.0498,-0.67972 -0.62202,-2.68371 -1.16447,-3.07252 -0.40163,-0.28787 -1.42938,-0.33871 -1.46151,0.1841 -0.0543,0.88356 0.4552,1.70158 0.70831,2.4722 0.1381,0.42044 0.15515,0.8873 0.31552,1.31562 0.26533,0.7086 0.55338,0.79036 0.43639,1.74311 -0.0218,0.17781 -0.91998,2.00822 -1.07371,2.27892 -0.20526,0.36139 -1.34179,1.40421 -0.74071,1.70814 0.58367,0.29515 1.19913,-1.18053 1.46354,-1.52904 0.0636,-0.0838 0.18258,-0.28517 0.16627,-0.0154 -0.42975,0.46052 -0.69619,1.56735 -1.12819,1.9534 -0.43897,0.3923 -1.40021,0.3801 -1.81129,0.99797 -0.42403,0.63736 0.021,1.24288 -0.056,1.34678 -0.0174,0.0235 -0.2119,0.0482 -0.29556,0.11062 -0.20089,0.14986 -0.40555,0.35291 -0.634,0.45677 -1.14424,0.52019 -5.36812,0.0988 -6.67908,-0.23938 -1.03222,-0.26625 -1.90236,-0.97635 -2.98681,-1.27233 -0.41228,-0.11252 -0.90578,-0.10865 -1.29123,-0.24933 -0.79487,-0.29013 -1.18231,-1.68862 -1.70001,-2.33166 l 1.59058,0.45506 1.03664,-0.18291 c -0.47663,-0.1431 -0.66811,-0.70591 -0.99193,-1.0475 -0.85397,-0.90094 -1.73154,-1.78252 -2.63312,-2.62282 -0.52531,-0.48958 -1.14654,-2.27597 -1.24449,-3.01467 -0.10736,-0.80924 -0.0783,-1.66072 -0.21895,-2.49966 -0.14327,-0.85479 -0.4717,-1.71814 -0.59524,-2.57647 -0.38665,-2.68592 0.76077,-5.24201 1.1464,-7.86635 1.19614,-1.76097 2.50756,-3.1311 4.23762,-4.3713 1.04679,-0.75037 2.75071,-2.09638 3.92458,-0.87701 0.9327,0.96881 0.42496,2.66197 0.36254,3.85041 -0.16944,-0.0169 -0.3211,-0.10146 -0.49668,-0.0994 -0.90688,0.0107 -1.81155,-0.16166 -2.7183,-0.0801 -2.45916,0.22119 -4.75449,3.30351 -4.37475,5.73114 0.098,0.62662 0.73241,1.44954 0.61284,2.10244 -0.0357,0.19496 -0.54361,0.68482 -0.67802,1.04764 -0.2869,0.77408 -0.26966,1.56278 -0.0956,2.35733 0.61215,2.79506 2.03715,7.97215 4.58675,9.54993 0.16654,0.1031 0.33751,0.2064 0.53568,0.23509 -0.0714,0.16274 -0.38296,0.10498 -0.56919,0.19934 -0.58085,0.29439 -0.41975,1.23698 0.23163,1.45105 0.67217,0.22089 1.26251,-0.17662 1.8777,-0.38299 0.41523,1.33578 2.0868,1.93069 3.39873,1.81163 1.24854,-0.11335 3.58347,-1.38405 4.23199,-2.47359 0.21568,-0.36235 0.30797,-0.84009 0.48756,-1.14358 0.15907,-0.26883 0.47326,-0.42825 0.64852,-0.80142 0.30054,-0.64002 0.28602,-1.64808 -0.0195,-2.28773 -0.16539,-0.34613 -0.5024,-0.49281 -0.65995,-0.78998 -0.10165,-0.19181 -0.13193,-0.46912 -0.22334,-0.68291 -0.0933,-0.21831 -0.36507,-0.33438 -0.25122,-0.7007 -0.23735,-0.0429 -0.14059,0.0359 -0.1889,0.12943 -0.0883,0.1707 -0.10132,0.42957 -0.35351,0.50494 -0.0287,-1.06905 -0.31792,-2.18065 -1.04208,-2.99143 -0.31456,-0.35217 -1.49059,-1.37466 -1.88831,-1.55522 -0.51332,-0.23301 -0.88411,-0.1714 -1.41984,-0.11982 0.33249,-0.27337 0.65051,-0.56977 1.02665,-0.78577 0.26638,-0.15295 1.80731,-0.87061 2.01774,-0.8914 0.47732,-0.0471 0.46372,0.32765 0.71614,0.54375 0.81696,0.69936 1.66359,0.60954 2.62921,0.90504 0.17871,-0.70605 -0.33254,-1.28704 -0.81903,-1.71845 -0.17682,-0.15677 -1.11459,-0.85083 -1.28575,-0.88909 -0.45565,-0.1019 -1.12335,0.0224 -1.6156,-0.0156 -0.83876,-0.0647 -1.59007,-0.34171 -2.47174,-0.12259 -0.91883,0.22836 -2.16502,1.66841 -1.85955,2.64195 0.0943,0.3004 0.35872,0.36185 0.39255,0.6478 -1.61487,0.44651 -2.8689,1.98177 -3.42025,3.513 l -0.52152,1.9235 c -0.97788,-1.09819 -1.57514,-2.2963 -2.01318,-3.69411 -0.18429,-0.5882 -0.73348,-2.36523 -0.75422,-2.87874 -0.0217,-0.53819 0.2444,-1.14273 0.18706,-1.7192 -0.0438,-0.44052 -0.35563,-0.54919 -0.37158,-0.80442 -0.0247,-0.39555 0.0465,-0.84862 0.32405,-1.14008 0.71729,0.91181 2.28072,1.53938 3.43353,1.52913 0.932,-0.008 2.92476,-0.74074 3.63252,-1.35187 0.35258,-0.30444 0.53452,-0.74101 0.81612,-0.99634 0.13114,-0.1189 0.32742,-0.1481 0.45496,-0.26996 0.81673,-0.78 1.30451,-1.53205 2.42099,-1.92875 1.06209,-0.37739 2.27132,-0.49608 3.3317,-0.92749 0.84623,-0.34429 1.54333,-0.94715 2.3872,-1.3282 0.81281,-0.36697 1.97064,-0.79515 2.82336,-1.07334 1.41385,-0.46123 3.17756,-0.45356 4.17147,-1.62821 l 0.94976,-1.2695 c -1.22822,0.0589 -2.10408,-0.30243 -3.33816,-0.0314 -1.91361,0.42017 -4.07969,1.21693 -5.97565,1.81765 -0.82779,0.26228 -1.50604,0.70296 -2.30695,0.9554 -1.12128,0.35344 -2.33092,0.49767 -3.4214,0.97273 0.41126,-1.91951 0.0986,-4.02401 -0.415,-5.8919 2.42426,-1.53639 6.27315,-0.85217 7.57379,-3.89356 -0.4333,-0.0536 -0.75177,-0.42753 -1.17466,-0.50705 -0.52042,-0.0978 -4.25071,0.7892 -4.9875,1.0047 -0.72527,0.21216 -3.32183,1.48808 -3.67027,1.48852 -0.13096,1.9e-4 -0.69581,-0.25947 -0.94837,-0.31377 -0.82175,-0.17671 -1.39052,-0.16839 -2.19757,0.0742 -0.3223,0.0969 -0.74393,0.37642 -1.02793,0.42201 -0.62565,0.10037 -1.3907,-0.12174 -2.07799,-0.0843 -0.84111,0.0458 -1.79091,0.34866 -2.62455,0.36593 -1.6428,0.034 -3.50681,-0.40804 -5.16686,-0.46036 -0.17751,-0.0407 -0.66811,-0.43468 -0.76104,-0.5983 -0.10053,-0.17712 -0.48216,-1.3609 -0.55019,-1.62466 -0.32382,-1.25519 0.0319,-2.18242 -0.1063,-3.33728 -0.0569,-0.47545 -0.31884,-0.79743 -0.44261,-1.23292 1.46409,-0.0299 2.82308,0.42696 4.291,0.1677 1.7697,-0.31256 3.99879,-2.16687 5.90181,-1.7972 0.22296,0.0433 0.66884,0.47483 1.0602,0.57013 1.9521,0.47534 4.8139,-1.65804 6.71972,-1.7157 0.76312,-0.0231 1.5792,0.21322 2.35992,0.13544 0.56803,-0.0566 1.73633,-0.3966 2.34064,-0.55913 0.12169,-0.0327 0.47884,-0.12475 0.52462,-0.2444 -0.94736,0.0333 -2.03066,-0.31573 -2.9492,-0.27645 -1.24067,0.0531 -2.26745,0.50986 -3.61939,0.45588 -1.82654,-0.0729 -3.60767,-0.37804 -5.41766,0.29327 -0.50245,0.18635 -0.82055,0.61898 -1.16793,0.7351 -0.77477,0.25901 -2.27445,0.25122 -3.08665,0.12554 -0.72919,-0.11287 -1.6889,-0.51263 -2.38163,-0.51814 -0.32903,-0.003 -0.83405,0.16576 -1.17857,0.17979 -0.67715,0.0276 -1.36084,-0.0178 -2.03766,4.3e-4 0.014,-0.32341 0.15345,-0.63106 0.17936,-0.95254 0.0814,-1.01004 -0.12616,-4.54458 -1.66645,-4.39213 -1.37259,0.13584 -0.48202,2.16301 -0.41772,2.94515 0.0884,1.07491 -0.0189,2.63359 -1.2668,2.94328 0.0926,-0.45165 0.32322,-0.94466 0.36084,-1.40452 0.0346,-0.42358 -0.1021,-0.74722 -0.0969,-1.08708 0.008,-0.50304 0.15589,-0.95683 0.0885,-1.53076 -0.22712,-1.93253 -2.41477,-2.75564 -4.059415,-1.99461 -2.196457,1.01638 -4.04291,2.23752 -5.09956,4.5062 -0.451968,0.97037 -0.399096,1.86534 -0.729372,2.80481 -0.68346,1.94409 -1.890612,2.98442 -2.067343,5.36351 -0.148566,1.99976 0.754586,5.72747 2.048121,7.29274 0.378353,0.45787 0.632663,0.30794 1.035908,0.50466 0.242094,0.11812 0.437355,0.31861 0.664468,0.42295 1.295702,0.59539 3.731304,0.77523 4.775413,-0.33076 0.82834,-0.87746 2.1765,-2.44326 2.13907,-3.70353 -0.007,-0.23371 -0.13912,-0.46679 -0.12524,-0.71686 0.048,-0.86416 1.40744,-2.31806 -0.47465,-2.51549 0.20633,-0.90674 -0.27155,-1.51442 -1.08767,-1.857 -1.446343,-0.60713 -2.380932,0.68498 -3.806117,0.77035 0.03706,-0.3203 0.415875,-0.33517 0.635244,-0.58717 0.218862,-0.25136 0.368258,-0.70888 0.558126,-0.98241 0.507052,-0.7305 1.381855,-2.15258 2.290497,-2.2405 1.28288,-0.12419 1.71088,-0.0136 2.63496,0.81769 1.02153,0.91896 1.09878,1.45222 1.65824,2.6009 0.28299,0.58096 0.98949,1.57303 0.97004,2.25112 -0.007,0.25387 -0.26786,0.65827 -0.30981,1.00549 -0.0594,0.49234 0.0289,1.03235 -0.0115,1.52903 -0.0804,0.98806 -1.00271,3.8849 -1.59232,4.6605 -1.09966,1.44653 -1.58459,0.87402 -2.91007,1.43971 -0.49654,0.21195 -0.55393,0.5809 -0.86724,0.76392 -0.219185,0.12805 -1.123259,0.3916 -1.389922,0.42244 -0.397344,0.046 -3.209547,-0.22444 -3.457956,-0.37411 -0.04167,-0.0251 -0.192864,-0.36314 -0.295473,-0.47502 -0.454088,-0.49502 -0.853737,-0.65677 -1.309715,-1.04595 -3.658565,-3.12247 -4.480542,-6.45948 -3.539131,-11.14754 0.411634,-2.04996 1.369317,-3.18648 1.976857,-5.00087 0.516364,-1.54197 0.980823,-2.57666 1.984971,-3.90536 1.668385,-2.20755 5.007599,-3.85653 7.637589,-4.5962 1.32792,-0.37346 1.43431,0.1047 2.36055,0.0948 0.25805,-0.003 0.46645,-0.18868 0.71573,-0.17768 0.21697,0.01 0.51457,0.19179 0.7598,0.24024 2.17423,0.42959 4.56475,0.20445 6.76582,0.11386 1.082,-0.0445 3.22278,0.37665 3.13049,-1.26536 0.9209,0.15983 1.61773,0.56242 2.58671,0.27665 0.26873,-0.0793 0.58002,-0.37429 0.80082,-0.36598 0.35023,0.0132 1.28782,0.47712 1.77652,0.58913 0.6865,0.15732 1.37835,0.12501 2.01848,0.247 1.00079,0.19073 1.95331,1.08862 3.05767,0.61216 l -0.18171,-0.7242 h 2.12957 c 0.0225,0 0.21158,0.23253 0.34313,0.29121 0.50171,0.22379 1.36729,0.18734 1.92565,0.16505 1.44975,-0.0579 2.59408,-0.63029 3.98082,-0.73132 2.3382,-0.17035 4.96431,0.0547 7.34718,0.007 5.24144,-0.10515 10.41328,-0.63244 15.6727,-0.27472 4.26754,0.29025 8.65957,1.3246 12.8652,1.54342 2.98184,0.15513 6.3854,-0.44007 9.42449,-0.55121 0.46754,-0.0171 0.94081,0.0192 1.40789,0.005 l -1.90605,0.76587 c -3.52046,1.11292 -7.16266,1.78346 -10.74683,2.66495 -0.77819,0.19139 -1.55278,0.65472 -2.32101,0.44117 -0.28625,-0.0796 -0.51479,-0.28606 -0.84687,-0.33073 -2.5755,-0.3464 -5.41582,0.59036 -7.96799,0.89681 -3.16631,0.38018 -5.79533,0.4455 -8.99843,1.06039 -1.35917,0.26092 -2.08052,0.26269 -3.41513,0.31857 -0.86319,0.0361 -2.08186,0.25483 -2.90034,0.16356 -0.55904,-0.0624 -1.09412,-0.40284 -1.71803,-0.45694 -1.71941,-0.1491 -3.53208,0.20879 -5.26297,0.0901 -0.47755,0.21105 -1.85622,-0.11095 -2.08384,0.36674 -0.16392,0.344 0.0898,0.59332 0.40804,0.67999 0.71383,0.19439 2.59772,0.3638 3.39752,0.41074 2.24726,0.13187 4.21688,-0.37074 6.35097,-0.37001 2.13077,7.3e-4 3.87051,0.41462 5.96749,0.71979 2.50438,-0.41539 5.05803,-0.19179 7.57596,-0.53396 0.0214,0.13028 -0.15267,0.11889 -0.24869,0.15675 -0.52885,0.20856 -1.1729,0.40237 -1.72573,0.54075 -1.3837,0.34638 -2.96777,0.70427 -4.3665,0.98006 -1.88047,0.37079 -2.87973,0.30372 -4.62523,1.35572 -1.86347,1.12312 -0.90758,2.19491 0.86166,2.22803 4.41587,0.0827 10.27034,-1.73379 14.524,-3.06338 3.01779,-0.94327 5.58891,-2.50454 8.4928,-3.55969 2.84931,-1.03529 5.83962,-1.56326 8.70327,-2.53409 0.26657,-0.0176 0.0762,0.1037 -0.0164,0.16533 -1.43722,0.95677 -4.47686,2.6669 -4.73573,4.5075 -0.048,0.34142 -0.13796,1.48805 -0.0585,1.76801 0.22656,0.79817 2.12976,0.0946 2.36683,-0.63776 0.0615,-0.19007 -0.013,-0.45263 0.12925,-0.59572 0.12644,-0.12717 0.70259,-0.38169 0.9197,-0.53021 2.81336,-1.92449 5.13308,-3.4391 8.26394,-4.87601 2.52867,-1.16054 5.21765,-2.33494 8.03534,-2.38595 -0.51973,0.59782 -1.02447,1.3013 -1.62962,1.81393 -0.73011,0.61846 -1.62533,1.00143 -2.40001,1.58726 -1.38098,1.04426 -2.73389,2.40383 -4.08265,3.52948 -1.58523,1.32301 -3.34659,2.32311 -4.48303,4.12586 -0.0144,0.0675 0.0926,0.061 0.134,0.0439 0.19895,-0.0821 1.03858,-0.72706 1.26832,-0.90702 1.3649,-1.06912 2.76514,-1.95955 4.07721,-2.99117 0.96003,-0.75483 1.85337,-1.8165 2.82737,-2.51926 1.89729,-1.36899 4.09864,-2.04996 5.96537,-3.6402 0.10284,-0.0876 0.15216,-0.27622 0.22748,-0.32348 0.18623,-0.11683 0.41588,0.0294 0.32064,0.32536 -0.26039,0.80907 -1.05365,2.69921 -1.46169,3.43417 -0.80971,1.4585 -2.07564,2.45316 -3.066,3.73051 -1.21605,1.56842 -1.6807,2.79408 -3.27229,4.15856 -2.43564,2.08806 -4.96671,4.0956 -7.59444,5.90801 -0.7957,0.54881 -0.79704,0.83007 -1.86853,1.12192 -0.88582,0.24129 -1.72365,0.56338 -2.57435,0.9598 -0.93016,0.43349 -1.57785,1.21133 -2.56319,1.69596 -1.74546,0.85848 -3.65184,1.41303 -5.46962,2.09626 -0.028,-0.0223 0.17641,-0.30471 0.2244,-0.36371 2.09223,-2.57189 4.87046,-5.2597 7.20405,-7.65766 0.77966,-0.80117 1.6789,-1.42083 2.26786,-2.39813 -0.083,-0.0648 -0.90753,0.27102 -1.05803,0.34565 -2.79579,1.38605 -6.15552,4.89416 -8.23181,7.26426 -1.08984,1.24407 -2.04724,2.60737 -3.0808,3.89738 -0.24633,0.0613 -0.0245,-0.52851 9.2e-4,-0.63391 1.06403,-4.42006 3.41177,-8.39798 5.88683,-12.14656 0.52747,-0.30251 0.98161,-0.72034 1.48552,-1.05184 0.55435,-0.36473 1.16037,-0.3297 1.18374,-1.26484 0.0291,-1.16327 -1.19909,-0.60892 -1.2603,-0.66963 -0.0122,-0.0121 -0.01,-0.23099 -0.0705,-0.33661 -0.45681,-0.79808 -1.39928,-0.5762 -2.12478,-0.36321 -2.94943,0.86593 -6.64639,2.81708 -9.37516,4.30846 -0.43251,0.23638 -1.63506,0.8601 -1.92601,1.15511 -0.0866,0.0878 -0.29681,0.43358 -0.2751,0.53089 0.4221,0.43387 1.11634,0.0807 1.59864,-0.11354 1.28358,-0.51678 2.63072,-1.585 3.94362,-1.94671 0.63875,-0.17597 1.28745,-0.14432 1.90739,-0.26751 1.20227,-0.23889 2.39513,-0.57226 3.60201,-0.79211 0.14428,0.13923 -1.30377,2.02037 -1.58095,2.17882 -0.26007,0.14869 -0.9155,0.26549 -1.28883,0.43296 -1.01968,0.45738 -2.89199,1.33354 -3.77519,1.93392 -0.27482,0.18678 -0.66847,0.60602 -0.29538,0.89969 0.55048,0.43339 3.11464,-0.83258 3.76869,-1.09562 -0.61468,1.51196 -1.27726,3.03166 -1.81359,4.57425 -0.4946,1.42272 -0.84097,3.29549 -1.37678,4.6041 -0.40509,0.98935 -1.7733,1.93178 -0.84346,3.0566 0.91855,1.11125 2.00276,0.0344 2.88467,-0.38105 1.1764,-0.55416 3.0554,-0.92988 4.00336,-1.79632 1.10385,-1.00894 2.02014,-1.81594 3.45731,-2.433 0.55854,-0.23981 1.11689,-0.31305 1.66506,-0.60044 0.63949,-0.33527 1.22311,-0.92534 1.87527,-1.29641 0.76675,-0.4363 1.6463,-0.59256 2.20222,-1.33198 0.19406,-0.25809 0.18097,-0.59201 0.50908,-0.75959 0.30266,-0.15458 0.50802,-0.059 0.78334,-0.12287 0.54919,-0.12743 1.07638,-0.91119 1.52001,-1.1986 0.36102,-0.23389 0.84295,-0.24193 1.25855,-0.46324 0.73306,-0.39034 1.38997,-1.23734 2.09799,-1.70807 0.38689,-0.25722 0.81115,-0.39394 1.21324,-0.68975 1.32456,-0.97454 2.1411,-2.73064 3.5808,-3.62259 -0.38319,0.89172 -0.8477,1.70445 -1.11026,2.64953 -0.14054,0.5059 -0.42882,2.70934 -0.5856,2.88243 -0.42421,0.46833 -2.16419,1.26924 -2.82667,1.67989 -1.54029,0.95473 -3.07739,2.08721 -4.65903,2.95311 -2.3086,1.2639 -4.88189,2.2272 -7.22171,3.47142 -1.84945,0.9834 -3.90877,2.17898 -5.69949,3.27191 -0.92353,0.56366 -1.83074,1.18153 -2.68715,1.84394 -0.28782,0.40611 -0.18894,1.03713 0.38278,1.067 0.28183,0.0147 2.07426,-1.0956 2.53604,-1.31995 1.96488,-0.95455 3.96838,-1.92331 5.9522,-2.83797 2.84474,-1.31165 5.88111,-2.19337 8.64039,-3.68396 1.73421,-0.93682 3.33663,-2.12883 5.10357,-3.00599 -0.0156,0.84355 -0.34742,1.94521 -0.27109,2.76422 0.0463,0.49712 0.46101,1.13388 0.59229,1.67309 0.57928,2.37881 -0.36029,4.50995 -0.13755,6.93407 0.0838,0.91163 0.55591,2.04637 1.31252,2.58246 0.06,-2.7e-4 0.33245,-0.5986 0.36785,-0.71794 0.3713,-1.25089 0.75334,-4.50248 0.44842,-5.71507 -0.20831,-0.82816 -0.67752,-1.15788 -0.57975,-2.11971 0.0984,-0.96838 0.79091,-1.74539 0.96575,-2.56767 0.19503,-0.91686 0.17235,-2.15734 0.30585,-3.13775 0.41675,-3.06068 0.5719,-5.51145 1.90296,-8.33711 0.85544,-1.8161 1.90126,-3.89261 2.87144,-5.64685 0.55291,-0.99979 1.04485,-1.53458 1.81188,-2.35665 l 1.10261,-2.0224 c -0.2498,3.06848 -0.92201,6.0756 -1.34701,9.11823 -0.43754,3.13248 -0.71955,5.50244 -1.91228,8.50905 -1.42523,3.59276 -2.0873,6.77769 -3.12874,10.46431 -0.31539,1.11655 -1.02415,2.73743 -1.20139,3.78231 -0.17636,1.03945 0.3548,1.08771 0.80953,0.2662 1.92316,-3.47432 2.74776,-9.87708 3.81612,-13.85483 0.62091,-2.31174 1.72896,-4.72807 2.28598,-6.95728 0.26689,-1.06792 0.27712,-2.18473 0.5241,-3.28192 0.58081,-2.5799 1.80008,-5.04506 2.1936,-7.68496 0.76229,1.82592 1.09302,3.86058 0.95036,5.84475 -0.15691,2.18185 -1.06269,4.46877 -0.81474,6.7074 0.0868,0.78381 0.72259,1.29462 1.30842,0.5829 0.14483,-0.17597 0.51346,-1.01889 0.60906,-1.07236 0.0307,-0.0171 0.66558,0.0788 0.69577,0.0968 0.2137,0.12699 0.19461,0.87503 0.24117,0.97794 1.92035,4.24449 5.40757,7.76424 8.74656,10.92193 1.1345,1.07292 1.97224,2.409 3.21844,3.39683 2.09048,1.65711 4.92868,3.77177 7.38268,4.76048 1.811,0.72965 2.0885,-0.8766 2.33193,-2.29008 0.49235,-2.85931 0.30543,-7.64265 -0.36314,-10.46255 -0.0621,-0.26192 -0.20647,-0.45179 -0.24597,-0.70465 0.26588,0.19792 0.5218,0.32643 0.85978,0.36271 1.03452,0.11113 2.28606,-0.0499 3.35691,-0.004 1.81285,0.0777 3.90306,0.24147 5.70447,0.45773 2.03453,0.24421 3.68738,0.6599 5.79971,0.81557 2.43546,0.17949 4.90702,0.397 7.34225,0.54171 1.19111,0.0708 2.06675,-0.25 3.08518,-0.27353 0.51148,-0.0118 1.04273,0.14069 1.62441,0.092 0.70199,-0.0588 1.46769,-0.35072 2.18789,-0.44017 1.56453,-0.19436 3.216,-0.0681 4.79514,-0.0984 4.70185,-0.0901 9.41716,-0.12715 14.13389,0.086 2.69484,0.12183 6.49704,-0.94934 8.47427,-2.8515 0.79801,-0.76768 2.0696,-3.25599 2.08933,-4.35348 0.0167,-0.92758 0.0442,-1.96146 -0.004,-2.90204 -0.0586,-1.1541 -0.41975,-1.68125 0.20425,-2.86939 0.36111,-0.68758 1.16165,-0.87063 1.6853,-1.3958 0.37448,-0.37556 2.09887,-3.57303 2.23112,-4.11227 0.44985,-1.83399 -0.0942,-3.84043 -1.18913,-5.33792 z m -160.52008,40.90221 c 0.10367,0.0781 0.22873,0.12856 0.35854,0.14013 0.0731,0.10208 -0.32747,0.49491 -0.40758,0.63128 -0.1453,0.005 -0.2863,-0.99308 -0.31631,-1.17573 0.16258,0.0832 0.18051,0.26518 0.36535,0.40432 z m -14.21644,-1.55222 c 0.28814,0.58505 0.49672,1.32046 0.61878,1.96243 l -0.52138,-0.97248 -0.3831,-1.38259 c 0.12109,0.0249 0.23246,0.2845 0.2857,0.39264 z m -3.45736,-20.51081 c 2.26085,0.48085 4.58227,0.52494 6.88623,0.6352 l -1.77754,1.60897 c -1.70047,-0.23672 -3.40624,0.12358 -5.10348,0.16728 -0.30847,0.008 -0.0218,-0.65034 -0.008,-0.91769 0.0264,-0.49576 -0.0167,-0.99837 0.002,-1.49376 z m -0.75551,4.61856 4.28874,0.004 c -0.29464,0.5969 -0.29464,1.25062 -0.27243,1.90182 -1.53798,-0.42837 -3.14141,0.0186 -4.71125,-0.0909 l 0.69494,-1.81487 z m -8.126428,-6.33986 c 0.02517,-0.0276 0.611689,-0.12197 0.724669,-0.18141 0.06997,0.0776 -0.197381,1.14405 -0.259149,1.32578 -0.04038,0.1187 -0.02595,0.27657 -0.192496,0.30502 0.09145,-0.2438 -0.347607,-1.36762 -0.273024,-1.44939 z m -1.450169,4.89252 c -0.701944,-0.0664 -1.241217,-0.6047 -1.930808,-0.74156 -0.147229,-0.0584 -0.169263,-0.19489 -0.224255,-0.31944 -0.292385,-0.66196 -0.85217,-2.47949 -0.97543,-3.19312 -0.15465,-0.89571 -0.104452,-1.83177 0.05089,-2.72307 0.146676,0.16191 0.721305,0.21906 0.794781,0.2916 0.06241,0.0616 0.132801,0.6617 0.196644,0.84544 0.139946,0.4029 0.516548,0.88941 0.880104,1.11357 0.198442,0.12239 0.810407,0.26153 0.834147,0.29893 0.03526,0.0556 0.176039,1.12843 0.191711,1.30315 0.0909,1.01067 0.0041,2.10858 0.182216,3.1245 z m 4.714197,-14.36143 c -0.29464,0.95963 -0.58453,1.6858 -1.6794,0.95064 -0.0378,-0.0525 0.42012,-0.59513 0.49751,-0.6826 0.40145,-0.45371 0.87176,-0.86763 1.36079,-1.22097 0.0216,0.33186 -0.0838,0.64296 -0.1789,0.95293 z m 6.03489,-9.30009 c -4.03318,-1.03909 -6.36203,-4.69491 -7.93804,-8.28345 -0.087,-0.20353 0.34899,-0.0542 0.36162,-0.0411 0.0246,0.0255 -0.0874,0.22872 -0.0537,0.36317 0.0878,0.35124 1.50414,0.95122 1.89361,1.19235 1.25808,0.7789 2.41531,1.73533 3.71729,2.44486 0.99308,0.54117 2.12482,0.88552 3.079,1.45202 1.1186,0.66417 1.93399,1.73079 3.08315,2.35405 l 1.2385,0.61787 -5.38139,-0.0998 z m 10.41107,0.19153 c -0.36711,-0.30618 -3.51171,-1.48284 -4.1428,-1.65696 -0.55089,-0.15198 -1.17945,-0.15308 -1.70217,-0.38205 -0.55887,-0.24477 -1.18273,-0.89802 -1.75168,-1.23882 -1.45271,-0.87016 -3.16922,-1.40081 -4.65244,-2.23469 -1.52166,-0.8555 -2.83958,-2.07264 -4.46952,-2.73526 -0.0216,-0.15744 0.20641,-0.0855 0.31562,-0.0895 2.27385,-0.0818 4.76799,0.67636 7.00815,1.14858 0.55508,0.11703 1.31188,0.5029 1.85502,0.37321 0.17309,-0.0413 0.34369,-0.2642 0.45879,-0.24428 0.17696,0.0306 2.28893,2.22487 2.55126,2.52747 0.89204,1.02906 1.42864,2.11317 2.67059,2.85722 0.52167,0.3125 1.1571,0.47918 1.6618,0.78496 0.42979,0.26041 0.84014,0.70819 1.23785,1.02584 -0.79552,0.5308 -0.5915,0.2387 -1.04047,-0.13574 z m 2.91131,-0.29868 c -1.34876,-1.03788 -2.82825,-1.4497 -4.28787,-2.13085 -1.13934,-0.5317 -1.54885,-1.55177 -2.29537,-2.41687 -0.95709,-1.10907 -1.98649,-1.74754 -2.40265,-3.21581 -0.63141,-2.2279 -1.65022,-3.92749 -2.26274,-6.16496 -0.21227,-0.77555 -0.28501,-1.59963 -0.58772,-2.3565 1.75058,1.57921 3.01871,3.65754 4.80068,5.21192 1.1056,0.96437 2.20346,1.61723 3.21941,2.76154 1.36083,1.53275 2.68037,3.09944 4.22231,4.47725 0.454,0.40567 1.02296,0.60279 1.4835,0.96322 0.58357,0.45673 0.98239,1.15887 1.55822,1.61352 0.80819,0.63821 1.70968,0.68273 2.47653,1.28325 -1.97082,0.005 -3.95556,-0.21947 -5.9243,-0.0257 z m 8.73526,-0.65474 c -0.78105,-0.42187 -2.24915,-1.18171 -3.0773,-1.36309 -0.42938,-0.094 -0.9179,-0.0462 -1.34055,-0.19999 -0.35674,-0.1298 -0.6966,-0.56512 -1.04914,-0.76324 -0.57458,-0.32287 -1.24495,-0.34623 -1.77791,-0.75948 -0.45146,-0.35007 -0.79529,-1.08398 -1.1824,-1.53621 -1.02945,-1.20261 -2.45307,-2.30854 -3.62796,-3.34981 -2.52253,-2.23567 -4.28984,-6.55727 -6.83865,-8.6574 -0.69494,-0.5726 -1.69033,-1.11059 -2.04204,0.0926 -0.0802,0.0812 -0.6895,-1.26867 -0.58864,-1.44925 1.36213,0.71382 2.90919,0.88204 4.35249,1.35658 0.6505,0.21388 1.27888,0.54249 1.96736,0.75125 2.778,0.84229 4.00161,0.95604 6.40504,2.83823 1.17838,0.92281 1.65368,1.87335 2.58923,2.93861 0.63626,0.72447 1.39693,1.30699 1.98719,2.09071 0.92325,1.22587 1.33101,2.80831 2.10316,4.14964 1.01769,1.7679 2.56466,3.03386 4.1102,4.31562 -0.89738,0.53091 -1.28735,-0.0752 -1.99008,-0.45481 z m 56.58691,2.20225 c -0.0915,-0.0144 -0.1393,-0.22571 -0.22725,-0.29365 -0.12985,-0.10032 -0.34692,-0.0839 -0.35761,-0.22949 l 1.17705,0.27194 c -0.0237,0.0994 -0.56043,0.2562 -0.59219,0.2512 z m 11.33054,-0.073 -0.22541,-0.54122 0.81469,0.18169 z m 15.95075,-2.7157 c 0.9314,-0.0554 1.88024,0.0487 2.81211,0.003 2.31874,-0.11408 4.14833,-0.29473 6.52004,-0.0935 4.25228,0.36078 8.29767,1.99474 12.09798,3.80632 0.0217,0.15743 -0.20609,0.0855 -0.31561,0.0895 -1.54315,0.0561 -2.88236,-0.37074 -4.34636,-0.45741 -1.74919,-0.10355 -3.05969,0.66435 -4.89633,0.54656 -1.08274,-0.0694 -2.17368,-0.11278 -3.26292,-0.18064 -1.94505,-0.12119 -3.86148,-1.06772 -5.72098,-1.2568 -1.11196,-0.11306 -2.1091,0.24339 -3.22452,-0.0378 -0.76547,-0.19295 -1.40717,-0.75343 -2.13271,-1.03901 l -2.2887,-0.56448 c 1.6039,-0.14138 3.14055,-0.71937 4.758,-0.81559 z m -3.98709,2.26351 c 1.08002,0.11852 2.17078,0.0617 3.25025,0.19334 0.88706,0.10818 1.87563,0.47039 2.73102,0.5313 0.68485,0.0488 1.32134,-0.15306 1.98258,-0.0793 0.82032,0.0915 1.48921,0.70891 2.29644,0.875 0.94841,0.19513 2.07748,0.0589 3.05047,0.21187 1.22808,0.19309 2.45676,0.5429 3.73591,0.70448 1.07527,0.13583 2.27284,0.12026 3.33272,0.29209 1.00258,0.16256 1.96805,0.64242 3.01179,0.79425 1.72656,0.2512 3.39642,0.0511 5.10777,-0.16807 -0.29308,0.35552 -0.61367,0.59914 -0.54292,1.12432 0.0213,0.15827 0.199,0.36407 0.17858,0.45523 -0.0422,0.18869 -2.34162,0.73693 -2.71573,0.82196 -2.0531,0.4666 -4.85189,0.97562 -6.93721,0.86368 -1.08956,-0.0585 -2.1747,-0.35433 -3.25933,-0.4561 -2.41379,-0.22648 -4.12284,-0.0384 -6.54779,-0.79245 -0.87217,-0.27121 -2.0117,-0.91002 -2.82635,-1.07034 -0.3442,-0.0677 -0.62949,-0.005 -0.97599,-0.11148 -0.76546,-0.23588 -1.73029,-1.03179 -2.46994,-1.4267 -1.34078,-0.71588 -2.59362,-1.00069 -3.63459,-2.25574 l -1.98534,-1.2303 c 1.04821,0.31746 2.12261,0.60278 3.21766,0.72295 z m 14.544,7.83612 c -0.5372,0.25089 -1.47921,0.5605 -2.06555,0.74787 -0.99667,0.31847 -1.88268,0.42819 -2.84769,0.68645 -0.92108,0.24652 -1.82055,0.60148 -2.7355,0.86886 -0.64248,-1.0936 -1.41454,-2.17026 -1.68526,-3.43183 0.40246,0.17486 0.88679,0.12048 1.2715,0.22284 0.27686,0.0737 0.72638,0.36338 1.06154,0.47901 1.71471,0.59159 4.0124,1.36077 5.79381,0.67375 0.51267,-0.19772 0.74043,-0.6327 1.38738,-0.4694 0.044,0.23656 -0.0452,0.15936 -0.18023,0.22245 z m -11.14772,-1.03894 -0.27008,-0.90574 c 0.56744,0.16459 0.25021,0.46788 0.27008,0.90574 z m -12.32256,8.79058 0.0906,-2.6275 0.52955,2.24942 c -0.0182,0.0314 -0.52563,0.31898 -0.62017,0.37808 z m 81.57019,-8.55068 c -0.51563,1.23092 -0.51102,2.53866 -0.87402,3.83825 -0.36766,1.31647 -1.0637,2.49168 -1.34258,3.82278 -0.13552,0.64707 -0.11782,1.75403 -0.29197,2.24534 -0.13271,0.37419 -1.76565,2.38262 -2.13386,2.66906 -2.40518,1.87106 -5.52539,1.78961 -8.37351,2.0478 -4.29214,0.38904 -8.57318,0.83073 -12.8574,1.27938 -1.19526,0.12515 -2.20596,0.40006 -3.45948,0.35514 -3.48197,-0.1248 -7.1912,-1.41894 -10.68986,-1.63457 -3.41287,-0.21033 -6.82418,-0.26413 -10.23539,-0.26906 -1.28566,-0.002 -3.69411,0.20817 -4.81059,0.0491 -0.0898,-0.0128 -0.38213,-0.32412 -0.63921,-0.4064 -0.6564,-0.21013 -2.8364,-0.26154 -3.49916,-0.0733 -0.27529,0.0782 -0.70909,0.41297 -0.75201,0.41254 -0.0553,-5.6e-4 -0.31161,-0.36169 -0.56172,-0.41927 -0.73375,-0.16894 -1.27657,0.27169 -1.20831,1.02287 0.034,0.37434 0.34475,0.60519 0.36596,0.81962 0.0202,0.20407 -0.14797,0.42238 -0.17323,0.63709 -0.13193,1.12017 0.62146,2.73933 0.79838,3.89918 0.2048,1.34245 0.35599,3.63875 0.17991,4.96377 -0.0713,0.53637 -0.26427,1.06326 -0.35277,1.59661 -1.10805,-0.32216 -2.04872,-1.01272 -2.89997,-1.76574 -2.10334,-1.86051 -3.71734,-4.27274 -5.70655,-6.16469 -0.30345,-0.28863 -0.74403,-0.56566 -1.04582,-0.85724 -1.70074,-1.64345 -3.3611,-3.62731 -4.89213,-5.43855 -1.12418,-1.32986 -2.94541,-4.74591 -3.46233,-6.41527 -0.36577,-1.18129 -0.44118,-2.43246 -0.72172,-3.62805 -0.3506,-1.49423 -1.04522,-2.89907 -1.27431,-4.43479 -0.15535,-1.04149 0.01,-2.14263 -0.28916,-3.15424 -0.0529,-0.17898 -0.27358,-0.41424 -0.26335,-0.52345 0.0114,-0.12264 0.20826,-0.30381 0.26127,-0.46409 0.10353,-0.31305 0.0956,-0.96203 0.45142,-0.73061 0.14313,0.0931 1.18544,1.71073 1.35917,1.99374 0.91173,1.48519 1.57104,3.03723 2.59067,4.47771 0.47276,0.66788 1.03623,1.26672 1.50535,1.93821 0.85673,1.22619 1.49326,2.62219 2.42583,3.78074 -0.26473,-0.82051 -0.5449,-1.70261 -0.91832,-2.47903 -0.91196,-1.89628 -2.24532,-3.75559 -3.02083,-5.76931 l -1.58731,-2.89748 c 0.77261,0.28104 1.57998,0.54392 2.32604,0.89006 2.12722,0.98692 6.04553,3.88911 6.99759,6.05171 1.29635,2.94462 1.77869,5.13407 4.04042,7.64963 0.10911,0.12137 0.58311,0.43906 0.58306,0.49603 -4e-5,0.0232 -0.15197,0.16572 -0.19051,0.25496 -0.19369,0.44853 -0.23025,0.73866 0.0307,1.18182 0.0654,0.11111 1.28404,1.43334 1.39066,1.50924 0.3613,0.25719 0.84424,0.38128 1.25744,0.1688 0.21527,-0.11067 0.42362,-0.51721 0.4835,-0.53332 0.36171,-0.0974 1.21102,-0.005 1.7668,-0.11593 1.79777,-0.36038 2.8843,-0.94782 4.91891,-0.78723 0.98857,0.078 2.44906,0.6665 3.34774,0.62598 0.74786,-0.0337 0.99392,-0.92073 0.29644,-1.27968 -1.29192,-0.66488 -4.56379,-0.14343 -6.08909,-0.1555 -1.23255,-0.01 -2.62879,-0.43118 -3.8979,-0.55071 -0.59389,-0.0559 -1.3435,0.20517 -1.76467,-0.31806 l 0.49884,-0.40573 c 1.3879,-0.003 2.77533,0.16454 4.16567,0.0877 2.08439,-0.1152 4.16266,-0.62736 6.24992,-0.72781 2.97252,-0.14303 6.01151,0.0564 8.97887,-0.0832 2.14341,-0.10081 4.28146,-0.54877 6.43127,-0.63716 2.64957,-0.10895 5.32635,0.0647 7.9621,-0.28434 0.37038,-0.0491 1.19664,-0.10111 1.37079,-0.44192 0.27169,-0.53162 -0.75201,-0.34616 -0.99636,-0.36287 -3.64132,-0.24896 -7.31791,0.34545 -10.96172,0.4576 -2.26528,0.0697 -4.62524,-0.20813 -6.89522,-0.1893 -2.37766,0.0197 -4.9698,0.41291 -7.33972,0.27997 -3.12215,-0.17512 -6.36378,-0.87554 -9.50777,-1.09708 -0.21592,-0.0152 -0.51623,0.078 -0.64221,0.0595 -0.14492,-0.0214 -0.51254,-0.53388 -0.67488,-0.64308 0.74965,-0.21042 1.54581,-0.47888 2.32142,-0.57753 0.57522,-0.0732 1.16686,-0.008 1.77846,-0.12455 1.376,-0.26316 5.80648,-1.98183 6.89443,-2.80201 0.1866,-0.14065 0.53619,-0.61135 0.57758,-0.62064 1.12685,-0.25314 2.71632,-0.15787 3.87756,-0.27077 1.63732,-0.15919 4.33714,-0.3315 5.65585,-1.32195 0.0943,-0.0708 0.12552,-0.25402 0.25122,-0.29768 0.13446,-0.0467 1.02664,0.10613 1.4108,0.0567 0.67535,-0.0869 2.14082,-0.62517 2.8358,-0.8796 1.46585,-0.53661 2.85065,-1.2591 4.27625,-1.88596 3.43067,0.33642 6.81141,0.009 10.22032,-0.20097 5.83871,-0.35968 11.67926,-0.76096 17.48814,-1.4515 1.31119,-0.15587 3.45671,-0.73158 4.61869,-0.72696 0.18424,7.3e-4 0.85461,0.0991 1.03185,0.15291 0.4557,0.13828 1.52751,1.2568 1.75232,1.69125 0.91744,1.77336 -0.11846,2.3791 -0.72849,3.83538 z m -49.71364,-33.77345 c -0.58975,-0.88825 0.0984,-1.62029 1.00018,-1.80007 1.64285,-0.32749 3.49129,-0.25094 5.16129,-0.27595 0.2993,-0.004 0.56379,-0.12209 0.90591,-0.0999 0.85512,0.0553 1.35217,0.85391 0.98355,1.62738 -1.94206,2.28317 -3.32885,4.95928 -4.94574,7.46877 l -2.79201,3.77703 c 0.13215,0.0275 0.22222,-0.0299 0.33548,-0.0714 3.23333,-1.1863 6.79486,-2.77146 9.96537,-4.17131 3.80174,-1.67858 7.41462,-3.74851 11.3345,-5.15842 2.33184,-0.83872 6.40066,-2.09815 8.53313,-0.42306 2.27869,1.78994 3.20199,4.21438 3.09182,7.06402 -0.011,0.28483 -0.17986,0.66738 -0.15709,0.89156 0.0311,0.30638 0.6647,0.89884 0.83276,1.32625 0.30727,0.78159 0.29377,1.57249 -5.5e-4,2.35387 l -0.76763,1.26944 c -0.10459,-0.38855 -0.54024,-0.59467 -0.76584,-0.91126 -0.63515,-0.89142 -0.5294,-2.00673 -0.8883,-3.00833 -0.32115,-0.89615 -0.90597,-1.71659 -1.26307,-2.54301 -0.34484,-0.79802 -0.32502,-1.45264 -0.85097,-2.23011 -0.1641,-0.24263 -1.30091,-1.50426 -1.49074,-1.59041 -0.34691,-0.15748 -1.32423,0.007 -1.73895,0.0701 -5.34696,0.80754 -10.30376,4.11449 -15.33966,5.95608 -4.17327,1.52612 -8.77979,3.03248 -13.027,4.37213 -1.00465,0.3169 -1.94311,0.34432 -2.85401,0.95203 -0.39006,0.26026 -0.93703,0.93329 -1.42652,0.93058 -0.15083,-8.4e-4 -0.33263,-0.11658 -0.4416,-0.10091 -0.0518,0.007 -0.11768,0.21238 -0.26316,0.29973 -0.70286,0.42204 -1.53245,0.5759 -2.21268,0.96064 -0.5396,0.30518 -0.94395,0.81534 -1.45017,1.17785 -0.8772,0.62819 -2.86217,1.54111 -3.90471,1.72031 -0.39744,0.0683 -0.67586,-0.0133 -0.51572,-0.43139 0.40564,-1.05917 4.11592,-2.47677 5.17598,-3.07076 0.71974,-0.40331 1.70942,-1.5077 2.52955,-1.55111 0.12174,-0.006 0.37167,0.1127 0.3996,0.0865 0.0172,-0.0161 0.0289,-0.2848 0.13999,-0.45062 0.73463,-1.09628 2.01812,-1.67928 3.21328,-2.13307 1.14843,-3.63679 4.34244,-5.99617 6.52461,-8.97145 l -2.84115,1.14612 c -0.67313,0.36311 -1.37996,0.66649 -2.05384,1.02728 -1.42486,0.76287 -2.80187,2.04133 -4.52862,1.85917 -0.10791,-0.0958 0.78925,-0.93637 0.90449,-1.04291 2.8076,-2.59541 6.63639,-3.61518 9.60656,-5.98013 -1.11293,-0.14777 -3.38291,0.78636 -4.11832,-0.32123 z M 260.33,129.81626 c -0.0817,0.39799 -1.5389,1.26589 -1.95039,1.49814 -2.09035,1.17973 -4.10491,1.89102 -6.37028,2.60117 -1.33028,0.417 -2.56919,1.11845 -3.99202,0.81996 -0.47654,-0.1 -0.86577,-0.37828 -1.35475,-0.32264 0.54356,-0.52574 0.88559,-0.99389 1.54775,-1.3965 2.37913,-1.44655 4.98077,-1.23525 7.39429,-2.30207 1.23338,-0.54518 2.28022,-1.24027 3.65359,-1.51155 0.50295,-0.0993 1.22375,-0.12691 1.07181,0.61349 z m -63.34909,45.94387 c -0.22702,1.44036 -4.03876,5.43687 -5.23291,6.54768 -0.49065,0.45637 -2.45049,2.37148 -2.86028,1.046 -0.19033,-0.61572 0.11381,-0.9288 0.42896,-1.39301 1.28012,-1.88556 3.2201,-3.71332 4.64238,-5.59771 0.48401,-0.64128 1.34277,-2.36171 2.11464,-2.51198 0.89453,-0.17418 1.00479,1.28971 0.90721,1.90902 z m -26.96627,-50.01736 c -0.17622,-0.25206 -1.23204,-1.6708 -0.33797,-1.57372 0.12565,0.0136 1.72508,1.37567 1.95362,1.58924 1.51415,1.41479 2.66765,3.2278 4.21499,4.57513 1.12897,0.98304 4.73752,2.97893 5.19922,4.04398 0.0712,0.16414 0.12667,0.30388 0.0998,0.48907 -1.78455,0.13218 -3.61431,-1.17865 -5.01281,-2.19128 -2.21637,-1.60482 -4.52917,-4.66131 -6.11689,-6.93242 z m 49.279,3.45871 c -1.33663,0.70748 -2.9338,1.72128 -4.28809,2.50846 -0.30875,0.17946 -0.95151,0.98379 -1.32207,0.47507 -0.43418,-0.59609 0.65631,-1.29702 1.0513,-1.56143 1.5833,-1.05989 3.0614,-2.45685 4.71402,-3.4418 1.37148,-0.81739 3.06577,-1.34096 4.46487,-2.15039 0.63464,-0.0845 1.2638,-0.1719 1.90619,-0.13183 -0.37665,0.45311 -0.49935,1.16175 -0.90684,1.58427 -1.12478,1.16631 -4.13072,1.92967 -5.61938,2.71765 z m -19.75447,35.02636 c -0.0338,0.88001 0.3636,1.81697 0.37052,2.67181 0.004,0.4528 -0.27445,2.37637 -0.47391,2.70646 -0.48175,0.79723 -1.57159,0.44658 -1.67212,-0.48375 -0.0809,-0.74917 0.36499,-2.33859 0.67258,-3.05316 0.2538,-0.58952 0.69365,-1.37093 1.10293,-1.84136 z m -28.32231,-31.90342 c 0.22287,-0.71668 1.13801,-0.61333 1.62206,-0.25329 0.56324,0.41895 1.7231,2.90866 1.21517,3.49862 -0.25569,0.29703 -0.95547,0.16247 -1.27731,0.007 -0.76274,-0.36809 -1.8116,-2.44308 -1.55992,-3.25248 z M 155.54859,120.3723 c -0.12031,0.59653 -0.86734,2.59427 -1.28003,2.97918 -0.45524,0.42457 -1.09819,0.13325 -1.09551,-0.4753 0.003,-0.71589 0.83004,-3.0089 1.29141,-3.58802 0.16171,-0.20295 0.57034,-0.604 0.82447,-0.62737 0.54715,-0.0503 0.3211,1.40685 0.25966,1.71151 z m 35.53945,-0.35577 c 0.93303,-0.13554 1.47502,3.7535 -0.2526,3.20981 -0.83797,-0.2637 -0.76975,-3.06129 0.2526,-3.20981 z m -28.56643,15.38902 c 0.5891,-0.002 0.77538,0.57252 0.48493,1.03418 -0.29515,0.46911 -2.69439,1.78225 -3.06753,1.50731 0.24039,-0.71057 1.87282,-2.53964 2.5826,-2.54149 z m -26.71735,37.17486 c -1.45354,0.78974 -2.63824,0.85003 -4.15824,1.27899 -2.35005,0.66318 -4.68572,1.425 -7.02507,2.12709 -0.75795,0.1594 -1.47206,-0.11377 -1.27335,-1.00051 0.11423,-0.50991 1.26833,-0.80713 1.74643,-0.97269 1.63146,-0.56492 3.37199,-0.84509 4.98888,-1.44516 0.85761,-0.31829 1.64294,-0.7937 2.49,-1.13479 1.69853,-0.68392 3.7833,-1.28606 5.61703,-1.0427 -0.44017,0.99599 -1.4522,1.6826 -2.38568,2.18977 z m -2.96073,-24.07517 c -0.79883,-0.33817 -0.62404,-1.27859 0.1411,-1.39947 1.39721,-0.22073 3.46916,0.0838 4.9781,-0.006 1.9664,-0.11711 4.04955,-0.62318 6.00898,-0.78751 1.16392,-0.0976 2.4144,0.0199 3.46123,0.56316 l -0.67576,0.86295 c -0.70748,0.69319 -1.65723,0.89452 -2.62708,0.90715 -1.686,0.022 -3.37771,0.0331 -5.08278,0.0825 -1.55214,0.045 -4.83184,0.35799 -6.20378,-0.22279 z m 1.19476,35.86782 c -0.13386,-0.42692 0.14589,-0.6541 0.464,-0.86091 1.48621,-0.9663 3.45938,-1.22107 5.07974,-1.98863 2.28496,-1.0824 3.96413,-3.14338 6.62458,-3.3433 0.85148,-0.064 1.26602,0.22325 2.04236,0.36651 -0.32442,0.39728 -0.5094,0.87614 -0.90527,1.22333 -0.86927,0.76238 -1.92016,0.78709 -2.94726,1.13068 -1.82502,0.61049 -3.58357,1.57101 -5.3683,2.24382 -0.97105,0.36607 -1.98838,0.59203 -2.9692,0.92745 -0.42127,0.14407 -1.80128,1.00053 -2.02065,0.30105 z m 21.09783,-19.69123 c -1.31677,1.28061 -3.5766,2.39921 -5.36627,2.83394 -1.33645,0.3246 -2.53235,-0.0347 -3.8765,0.1547 l 2.39743,-1.27128 c 1.94017,-0.36162 4.11657,-1.37775 6.02516,-1.67755 0.27575,-0.0433 0.54246,-0.0568 0.82018,-0.0398 z m -14.54064,-6.52168 c -0.4392,0.45561 -2.47344,1.57498 -3.07444,1.53296 -0.96833,-0.0677 -1.38111,-1.2509 -0.69323,-1.9477 0.38776,-0.39283 2.31207,-1.04773 2.88282,-1.10418 0.31603,-0.0312 1.25491,0.0861 1.43178,0.33286 0.14654,0.20446 -0.37651,1.00926 -0.54693,1.18606 z m 1.70909,6.7962 c -0.25375,-0.81105 0.91449,-0.71789 1.43173,-0.84613 0.79607,-0.19733 2.02355,-0.48967 2.69475,-0.93007 0.25026,-0.16419 0.5012,-0.47746 0.79188,-0.65801 1.1771,-0.73122 2.68705,-0.91797 4.01604,-0.55887 l -0.64142,0.58049 c -1.59404,1.35064 -3.58389,0.63473 -5.30925,1.5779 -0.50079,0.27376 -2.65032,1.90043 -2.98373,0.83469 z m 12.10684,11.05295 c 0.15704,0.17475 -0.75772,1.36522 -0.94778,1.5437 -1.71028,1.60643 -3.09947,-0.83267 -1.02788,-1.48103 0.63418,-0.19846 1.32741,-0.2069 1.97566,-0.0627 z m -14.81768,-6.34299 c 0.39408,-0.84378 3.58394,-1.33552 4.48631,-1.45026 l -1.11662,0.5585 c -0.71163,0.39587 -2.10842,1.60247 -2.90739,1.52417 -0.31562,-0.0309 -0.61662,-0.3019 -0.4623,-0.63241 z m 13.15948,-23.45271 c 1.25039,-0.36779 1.80898,1.27784 0.66258,1.57121 -1.1535,0.29518 -1.53176,-1.31554 -0.66258,-1.57121 z m 8.25803,27.284 c -0.18148,0.65571 -1.31773,0.27063 -0.96967,-0.28697 0.0583,-0.0935 1.13967,-0.32737 0.96967,0.28697 z m 107.94174,-11.84976 c -0.0185,0.64055 -1.72472,0.72024 -2.21877,0.76689 -3.15691,0.29801 -6.41352,0.0978 -9.60444,0.36374 -0.87324,0.0727 -1.75412,0.3058 -2.62943,0.36105 -1.22513,0.0773 -2.57675,-0.0267 -3.80405,0.0926 -1.00875,0.0981 -1.98414,0.44885 -2.99276,0.54141 -0.43846,0.0402 -0.92408,-0.0446 -1.35719,0.002 -1.55817,0.16807 -3.01346,0.58897 -4.59753,0.3365 -0.65226,-0.10395 -1.23495,-0.35913 -1.86618,-0.48995 -1.22237,-0.2533 -2.34954,-0.18701 -3.45261,-0.89716 -0.0982,-0.0633 -0.57551,-0.33491 -0.46045,-0.48958 1.41421,-0.77227 2.90753,-0.26187 4.39835,-0.36029 1.1989,-0.0791 2.47202,-0.40084 3.70821,-0.46031 4.39476,-0.21148 8.98883,0.17226 13.41927,-0.0832 3.32276,-0.005 7.23222,-0.56606 10.51192,-0.2793 0.3359,0.0294 0.95829,0.16 0.94566,0.59542 z m 10.03598,-8.27417 c -0.16336,0.9894 -0.64179,2.2784 -1.63445,2.71522 -0.32885,0.1447 -1.06905,0.2391 -1.28455,-0.10828 -0.41915,-0.67571 0.51088,-2.34603 0.65534,-3.14877 0.15484,-0.86007 -0.0584,-2.86819 0.9959,-3.08256 1.70724,-0.34711 1.43251,2.62641 1.26776,3.62439 z m -58.53127,20.70206 c 0.14774,0.26671 0.48802,0.63167 0.57929,0.87029 0.33797,0.88379 -0.39071,1.65734 -1.23006,1.13939 -0.78146,-0.48218 -2.10616,-4.22478 -2.60874,-5.27482 -0.49581,-1.03577 -1.21522,-2.05211 -1.66235,-3.04991 -0.22642,-0.50535 -0.45436,-1.06758 -0.40868,-1.62939 0.55499,-0.026 0.59214,0.75781 0.7993,1.14817 0.5419,1.02123 1.57624,1.63319 2.2278,2.57506 0.84309,1.21882 1.56799,2.89356 2.30344,4.22121 z m 21.82762,-19.06525 c 0.38767,0.46423 -0.0986,0.75219 -0.5572,0.794 -0.96202,0.0877 -3.13008,0.10019 -4.07223,-0.0144 -1.46344,-0.17793 -1.40264,-1.22548 0.0773,-1.35249 0.74629,-0.064 4.10892,0.0422 4.55208,0.57287 z m -28.90242,6.65617 c 0.14114,0.85039 -0.32064,1.35392 -1.11127,0.84004 -0.68286,-0.44385 -2.50927,-3.43739 -1.06537,-3.70226 0.32046,-0.0588 0.55905,0.16924 0.74878,0.39396 0.23205,0.27491 1.38112,2.18691 1.42786,2.46826 z m 45.37138,-5.68129 c -0.36332,-1.15493 2.26546,-1.70093 2.91974,-1.05983 0.31074,0.30451 0.30608,0.93717 -0.0123,1.23861 -0.49784,0.4714 -2.66451,0.59339 -2.90744,-0.17878 z m 13.11993,-2.83414 c -0.28543,-0.39185 -0.0715,-1.38839 0.21314,-1.78566 0.87964,-1.22771 2.36176,-0.25194 1.62114,0.89625 -0.22564,0.34978 -1.5337,1.3021 -1.83428,0.88941 z m 1.01922,6.73233 c -1.24869,-0.0867 -1.12967,-1.50684 0.0252,-1.70524 1.98313,-0.34069 1.75998,1.82926 -0.0252,1.70524 z m 8.79868,-9.61097 c -0.44076,-0.0719 -0.43823,-0.78037 -0.0768,-0.88896 0.85531,-0.25698 0.94114,1.02999 0.0768,0.88896 z"
   stroke-linecap="round"
   id="path1" />
</g>
</g>
</g>
<g
   transform="matrix(1.9211538,0,0,1.9211538,465.34779,453.89129)"
   id="text-logo">
<g
   paint-order="stroke"
   id="g3">
		<g
   id="text-logo-path-0">
<path
   style="opacity:1;fill:#c26002;fill-rule:nonzero;stroke:none;stroke-width:0;stroke-linecap:butt;stroke-linejoin:miter;stroke-miterlimit:4;stroke-dasharray:none;stroke-dashoffset:0"
   paint-order="stroke"
   transform="translate(-236.01089,23.63)"
   d="m 27.27,-1.29 c -8.77,0 -15.78,-9.32 -15.78,-22.44 0,-12.85 5.65,-22.24 14.62,-22.24 6.26,0 12.24,5.85 14.42,12.31 h 1.02 v -7.75 c -4.35,-4.49 -9.86,-6.94 -16.46,-6.94 -13.19,0 -22.71,10.34 -22.71,24.62 0,14.48 10.13,24.82 24.28,24.82 6.46,0 12.03,-2.31 16.32,-6.46 l -0.07,-9.93 h -1.02 c -2.72,9.32 -8.03,14.01 -14.62,14.01 z m 39.51,-36.86 v 29.04 c 0,4.35 -1.16,7.41 -5.31,7.41 -1.43,0 -1.56,2.04 0,2.04 2.45,0 4.42,-0.34 7.41,-0.34 h 4.63 c 2.85,0 4.89,0.34 7.41,0.34 1.5,0 1.5,-2.04 0,-2.04 -4.15,0 -5.37,-3.06 -5.37,-7.41 v -29.04 c 0,-4.35 1.15,-7.41 5.37,-7.41 1.43,0 1.56,-2.04 0,-2.04 -2.52,0 -4.49,0.34 -7.41,0.34 h -4.63 c -2.92,0 -4.89,-0.34 -7.41,-0.34 -1.56,0 -1.49,2.04 0,2.04 4.15,0 5.31,2.99 5.31,7.41 z m 39.71,29.04 V -39.98 L 136.2,0 h 2.04 v -38.15 c 0,-4.35 1.16,-7.41 5.31,-7.41 1.43,0 1.56,-2.04 0,-2.04 -2.18,0 -3.95,0.27 -6.33,0.34 -2.31,-0.07 -4.21,-0.34 -6.39,-0.34 -1.49,0 -1.43,2.04 0,2.04 4.15,0 5.37,2.99 5.37,7.41 v 23.46 l -24.14,-32.57 h -5.57 c -2.86,0 -4.9,-0.34 -7.35,-0.34 -1.56,0 -1.49,2.04 0,2.04 4.15,0 5.31,2.99 5.31,7.41 v 29.04 c 0,4.35 -1.16,7.41 -5.31,7.41 -1.42,0 -1.56,2.04 0,2.04 2.11,0 3.95,-0.27 6.33,-0.34 2.38,0.07 4.21,0.34 6.32,0.34 1.5,0 1.5,-2.04 0,-2.04 -4.08,0 -5.3,-3.06 -5.3,-7.41 z m 62.29,0 V -39.98 L 198.49,0 h 2.04 v -38.15 c 0,-4.35 1.16,-7.41 5.31,-7.41 1.42,0 1.56,-2.04 0,-2.04 -2.18,0 -3.95,0.27 -6.33,0.34 -2.31,-0.07 -4.21,-0.34 -6.39,-0.34 -1.5,0 -1.43,2.04 0,2.04 4.15,0 5.37,2.99 5.37,7.41 v 23.46 l -24.14,-32.57 h -5.57 c -2.86,0 -4.9,-0.34 -7.35,-0.34 -1.56,0 -1.49,2.04 0,2.04 4.15,0 5.31,2.99 5.31,7.41 v 29.04 c 0,4.35 -1.16,7.41 -5.31,7.41 -1.43,0 -1.56,2.04 0,2.04 2.11,0 3.95,-0.27 6.33,-0.34 2.38,0.07 4.21,0.34 6.32,0.34 1.5,0 1.5,-2.04 0,-2.04 -4.08,0 -5.3,-3.06 -5.3,-7.41 z m 94.38,0.81 -17.2,-38.96 h -2.25 l -14.35,38.69 c -1.56,4.15 -4.35,6.87 -8.5,6.87 -1.42,0 -1.56,2.04 0,2.04 2.11,0 3.88,-0.27 6.26,-0.34 3.26,0.07 5.71,0.34 8.77,0.34 2.11,0 2.04,-2.04 0,-2.04 -5.78,0 -5.85,-2.72 -4.28,-6.87 l 2.45,-6.73 h 16.79 l 3.06,7 c 1.84,3.95 2.11,6.6 -3.74,6.6 -1.97,0 -2.17,2.04 0,2.04 3.47,0 6.26,-0.34 10.41,-0.34 h 4.82 c 2.11,0 3.47,0.34 5.24,0.34 1.02,0 1.02,-2.04 0,-2.04 -2.86,0 -5.64,-2.58 -7.48,-6.6 z m -13.19,-9.04 H 234.8 l 7.01,-18.63 z m 88.53,-29.92 h -6.73 l -14.35,35.97 -16.38,-35.97 H 296 c -2.85,0 -4.82,-0.34 -7.34,-0.34 -1.56,0 -1.5,2.04 0,2.04 4.15,0 5.3,2.99 5.3,7.41 v 29.04 c 0,4.35 -1.15,7.41 -5.3,7.41 -1.43,0 -1.56,2.04 0,2.04 2.11,0 3.94,-0.27 6.32,-0.34 2.38,0.07 4.22,0.34 6.33,0.34 1.49,0 1.49,-2.04 0,-2.04 -4.08,0 -5.31,-3.06 -5.31,-7.41 V -37.13 L 312.87,0 h 2.17 l 16.73,-41.89 v 32.78 c 0,4.35 -1.15,7.41 -5.3,7.41 -1.43,0 -1.57,2.04 0,2.04 2.45,0 4.42,-0.34 7.41,-0.34 h 4.62 c 2.86,0 4.9,0.34 7.42,0.34 1.49,0 1.49,-2.04 0,-2.04 -4.15,0 -5.38,-3.06 -5.38,-7.41 v -29.04 c 0,-4.35 1.16,-7.41 5.38,-7.41 1.42,0 1.56,-2.04 0,-2.04 -2.52,0 -4.49,0.34 -7.42,0.34 z m 46.52,48.35 c 13.12,0 22.64,-8.98 22.64,-24.82 0,-15.57 -9.52,-24.62 -22.64,-24.62 -13.2,0 -22.72,8.98 -22.72,24.62 0,15.84 9.46,24.82 22.72,24.82 z m 0,-2.38 c -7.96,0 -13.6,-7.96 -13.6,-22.44 0,-14.21 5.64,-22.24 13.6,-22.24 7.82,0 13.53,7.96 13.53,22.24 0,14.41 -5.65,22.44 -13.53,22.44 z m 46.44,-7.82 V -39.98 L 461.18,0 h 2.04 v -38.15 c 0,-4.35 1.15,-7.41 5.3,-7.41 1.43,0 1.56,-2.04 0,-2.04 -2.18,0 -3.94,0.27 -6.32,0.34 -2.32,-0.07 -4.22,-0.34 -6.4,-0.34 -1.49,0 -1.42,2.04 0,2.04 4.15,0 5.38,2.99 5.38,7.41 v 23.46 l -24.14,-32.57 h -5.58 c -2.86,0 -4.9,-0.34 -7.34,-0.34 -1.57,0 -1.5,2.04 0,2.04 4.14,0 5.3,2.99 5.3,7.41 v 29.04 c 0,4.35 -1.16,7.41 -5.3,7.41 -1.43,0 -1.57,2.04 0,2.04 2.1,0 3.94,-0.27 6.32,-0.34 2.38,0.07 4.22,0.34 6.32,0.34 1.5,0 1.5,-2.04 0,-2.04 -4.08,0 -5.3,-3.06 -5.3,-7.41 z"
   stroke-linecap="round"
   id="path2" />
</g>
</g>
</g>
<g
   transform="matrix(1.9211538,0,0,1.9211538,467.48779,549.18969)"
   id="tagline-3974bb1d-9bfc-42a8-9204-eafcde3bf3bb-logo">
<g
   paint-order="stroke"
   id="g4">
		<g
   id="tagline-3974bb1d-9bfc-42a8-9204-eafcde3bf3bb-logo-path-0">
<path
   style="opacity:1;fill:#c26002;fill-rule:nonzero;stroke:none;stroke-width:0;stroke-linecap:butt;stroke-linejoin:miter;stroke-miterlimit:4;stroke-dasharray:none;stroke-dashoffset:0"
   paint-order="stroke"
   transform="translate(-123.12,8.855)"
   d="m 2.07,-15.5 c -0.19,-0.47 -0.29,-0.86 -0.29,-1.19 0,-0.32 0.15,-0.6 0.47,-0.82 0.31,-0.21 0.71,-0.33 1.2,-0.33 v 0 h 0.31 c 0.65,0 1.18,0.13 1.6,0.38 0.42,0.26 0.62,0.63 0.63,1.1 v 0 c 0,0.19 -0.06,0.44 -0.18,0.77 -0.12,0.34 -0.24,0.71 -0.34,1.12 -0.1,0.4 -0.15,2.3 -0.15,5.67 0,3.38 0.09,5.28 0.25,5.72 0.17,0.44 0.46,0.71 0.87,0.81 0.39,0.1 1.04,0.15 1.94,0.15 0.9,0 1.56,-0.06 1.98,-0.2 0.42,-0.14 0.85,-0.3 1.28,-0.47 0.43,-0.18 0.75,-0.27 0.97,-0.27 v 0 c 0.57,0 0.86,0.38 0.86,1.16 v 0 0.29 c 0,0.65 -0.24,1.09 -0.71,1.34 v 0 C 12.43,-0.09 11.76,0 10.73,0 V 0 H 8.15 L 7.83,-0.01 H 7.5 C 5,-0.01 3.43,-0.08 2.81,-0.22 2.18,-0.36 1.87,-0.71 1.87,-1.29 v 0 c 0,-0.12 0.06,-0.34 0.17,-0.67 0.12,-0.31 0.22,-0.64 0.28,-0.97 0.07,-0.33 0.09,-0.97 0.09,-1.89 v 0 l 0.04,-1.93 c 0,0 0,-1.36 0,-4.09 v 0 c 0,-1.97 -0.01,-3.11 -0.04,-3.45 -0.04,-0.34 -0.15,-0.74 -0.34,-1.21 z m 22.61,14.26 v 0 -0.36 l 0.09,-0.36 0.22,-0.69 c 0.19,-0.73 0.27,-2.26 0.27,-4.61 v 0 l 0.21,-5.63 c 0,-1.13 -0.03,-1.81 -0.07,-2.07 -0.05,-0.25 -0.14,-0.54 -0.25,-0.87 -0.13,-0.33 -0.19,-0.65 -0.19,-0.95 v 0 c 0,-0.74 2.03,-1.11 6.08,-1.11 v 0 h 2.79 c 1.39,0 2.07,0.47 2.07,1.41 v 0 c 0,0.31 -0.09,0.53 -0.28,0.69 -0.19,0.16 -0.41,0.24 -0.69,0.24 -0.3,0 -0.8,-0.04 -1.54,-0.12 -0.75,-0.06 -1.56,-0.1 -2.45,-0.1 -0.9,0 -1.51,0.22 -1.85,0.65 v 0 c -0.45,0.57 -0.68,1.59 -0.68,3.05 v 0 c 0,0.63 0.19,1.08 0.57,1.33 0.37,0.27 1.07,0.39 2.07,0.39 v 0 l 1.9,-0.33 c 0.91,0 1.37,0.42 1.37,1.25 v 0 c 0,0.48 -0.11,0.87 -0.32,1.17 -0.22,0.29 -0.47,0.44 -0.76,0.44 -0.31,0 -0.71,-0.05 -1.23,-0.15 -0.52,-0.1 -0.94,-0.16 -1.26,-0.16 v 0 c -1.09,0 -1.79,0.16 -2.11,0.46 -0.32,0.31 -0.47,1.03 -0.47,2.19 0,1.15 0.15,2 0.47,2.56 0.31,0.57 0.92,0.85 1.83,0.85 v 0 c 1.26,0 2.34,-0.09 3.26,-0.27 0.92,-0.17 1.46,-0.26 1.63,-0.26 v 0 c 0.62,0 0.92,0.24 0.92,0.71 v 0 0.32 c 0,0.71 -0.45,1.15 -1.35,1.34 v 0 c -0.68,0.14 -2.24,0.2 -4.71,0.2 v 0 h -0.49 c -2.02,0 -3.36,-0.08 -4.03,-0.27 -0.68,-0.2 -1.02,-0.5 -1.02,-0.94 z m 23.56,0.35 c -0.26,-0.37 -0.39,-0.77 -0.39,-1.23 0,-0.44 0.15,-0.9 0.47,-1.36 0.31,-0.44 0.53,-0.85 0.67,-1.22 0.14,-0.35 0.75,-2.14 1.86,-5.35 1.09,-3.22 1.82,-5.22 2.21,-6.02 0.36,-0.8 0.69,-1.31 0.99,-1.53 0.28,-0.21 0.62,-0.31 1.04,-0.31 0.42,0 0.78,0.15 1.13,0.44 0.34,0.29 0.7,0.86 1.09,1.7 v 0 c 0.01,0.03 1.33,3.75 3.96,11.17 v 0 c 0.14,0.41 0.36,0.83 0.62,1.27 0.27,0.45 0.41,0.83 0.41,1.15 v 0 0.25 c 0,0.48 -0.21,0.91 -0.61,1.31 v 0 c -0.22,0.21 -0.62,0.32 -1.21,0.32 -0.59,0 -1.01,-0.16 -1.25,-0.47 v 0 C 59.2,-0.81 59.04,-1.38 58.74,-2.5 58.44,-3.62 58.1,-4.39 57.73,-4.82 57.35,-5.24 56.61,-5.46 55.52,-5.46 v 0 c -2.08,0 -3.31,0.18 -3.71,0.53 -0.39,0.37 -0.77,1.13 -1.14,2.29 v 0 c -0.14,0.42 -0.23,0.82 -0.28,1.22 -0.05,0.39 -0.11,0.63 -0.19,0.75 v 0 c -0.15,0.23 -0.45,0.34 -0.89,0.34 -0.44,0 -0.8,-0.19 -1.07,-0.56 z m 4.12,-6.74 v 0.08 c 0,0.2 0.43,0.3 1.31,0.3 v 0 h 0.85 l 0.11,-0.01 0.42,0.01 h 0.21 c 1.29,0 1.93,-0.13 1.93,-0.37 v 0 -0.07 c 0,-0.09 -0.05,-0.33 -0.15,-0.75 -0.11,-0.41 -0.18,-0.65 -0.19,-0.73 -0.01,-0.06 -0.04,-0.14 -0.06,-0.21 -0.03,-0.07 -0.15,-0.59 -0.37,-1.55 -0.23,-0.95 -0.52,-1.85 -0.88,-2.68 -0.35,-0.82 -0.55,-1.24 -0.61,-1.24 -0.05,0 -0.2,0.3 -0.44,0.91 v 0 c -1.42,3.56 -2.13,5.66 -2.13,6.31 z m 21.43,-7.24 c -0.42,0 -0.62,-0.43 -0.62,-1.29 0,-0.86 0.36,-1.36 1.1,-1.47 v 0 c 1.03,-0.17 3.47,-0.25 7.3,-0.25 v 0 h 3.53 c 0.65,0 1.12,0.13 1.4,0.37 0.26,0.24 0.4,0.63 0.4,1.15 v 0 c 0,0.8 -0.24,1.2 -0.73,1.2 v 0 c -0.19,0 -0.54,-0.07 -1.06,-0.21 -0.52,-0.14 -1.03,-0.22 -1.53,-0.22 v 0 c -1.13,0 -1.79,0.42 -2,1.27 v 0 c -0.16,0.71 -0.25,2.81 -0.25,6.3 v 0 l -0.04,2.48 v 1.27 c 0,0.5 0.04,0.88 0.1,1.13 0.07,0.26 0.16,0.56 0.29,0.93 0.13,0.37 0.2,0.65 0.2,0.86 v 0 c 0,0.42 -0.18,0.75 -0.54,0.98 -0.37,0.23 -0.86,0.34 -1.51,0.34 v 0 h -0.32 c -0.47,0 -0.87,-0.11 -1.24,-0.35 -0.37,-0.23 -0.55,-0.51 -0.55,-0.83 0,-0.31 0.05,-0.62 0.16,-0.9 v 0 l 0.1,-0.25 0.11,-0.26 c 0.08,-0.17 0.17,-0.45 0.28,-0.82 0.1,-0.37 0.15,-1.05 0.15,-2.06 v 0 l 0.02,-0.35 c 0.01,-0.24 0.01,-0.47 0.01,-0.71 v 0 l 0.02,-0.73 0.04,-2.87 c 0,-2.4 -0.07,-3.86 -0.21,-4.38 v 0 c -0.19,-0.67 -0.71,-1 -1.59,-1 v 0 c -0.51,0 -1.09,0.12 -1.76,0.33 -0.68,0.23 -1.1,0.34 -1.26,0.34 z m 24.15,13.49 v 0 c 0,-0.02 0.15,-0.55 0.47,-1.58 v 0 c 0.17,-0.59 0.26,-2.6 0.26,-6.03 v 0 l 0.01,-0.52 c 0.02,-0.48 0.02,-0.86 0.03,-1.14 0.01,-0.28 0.01,-0.92 0.01,-1.91 0,-0.97 -0.02,-1.63 -0.09,-1.95 -0.06,-0.32 -0.19,-0.69 -0.36,-1.08 -0.19,-0.39 -0.28,-0.71 -0.28,-0.94 v 0 c 0,-0.72 0.58,-1.08 1.76,-1.08 v 0 c 0.61,0 1.09,0.12 1.46,0.34 0.36,0.25 0.53,0.52 0.53,0.84 v 0 c 0,0.08 -0.03,0.37 -0.12,0.89 -0.09,0.52 -0.13,1.16 -0.13,1.92 v 0 c 0,1.58 0.23,2.54 0.67,2.85 0.45,0.33 1.84,0.5 4.22,0.5 v 0 c 1.24,0 1.98,-0.23 2.21,-0.71 0.23,-0.47 0.34,-1.55 0.34,-3.25 v 0 l -0.29,-2.01 c 0,-0.49 0.21,-0.86 0.67,-1.1 0.45,-0.24 0.97,-0.37 1.59,-0.37 0.61,0 1.04,0.1 1.31,0.32 0.25,0.21 0.38,0.42 0.38,0.63 v 0 0.42 l -0.11,0.39 -0.16,0.37 -0.15,0.4 c -0.14,0.47 -0.22,1.99 -0.22,4.54 v 0 l -0.02,2.11 c 0,0.24 -0.02,0.58 -0.03,1.05 v 0 l -0.04,1.07 c -0.02,1.07 -0.04,1.83 -0.04,2.28 0,0.47 0.04,0.83 0.11,1.08 0.06,0.27 0.16,0.59 0.33,0.96 0.15,0.36 0.22,0.64 0.22,0.81 v 0 c 0,0.45 -0.14,0.76 -0.43,0.92 -0.29,0.17 -0.75,0.25 -1.34,0.25 -0.61,0 -1.11,-0.14 -1.49,-0.44 -0.38,-0.28 -0.57,-0.55 -0.57,-0.82 0,-0.27 0.04,-0.59 0.11,-0.94 0.07,-0.34 0.13,-0.69 0.18,-1 0.04,-0.32 0.07,-1.1 0.07,-2.31 0,-1.22 -0.23,-1.98 -0.69,-2.28 v 0 c -0.32,-0.21 -1.08,-0.31 -2.26,-0.31 v 0 c -2.32,0 -3.69,0.22 -4.1,0.68 v 0 c -0.32,0.37 -0.48,1.44 -0.48,3.2 v 0 c 0,0.66 0.01,1.13 0.05,1.41 v 0 l 0.06,0.41 0.08,0.36 c 0.05,0.3 0.07,0.56 0.07,0.82 0,0.26 -0.16,0.5 -0.49,0.73 -0.33,0.23 -0.83,0.35 -1.47,0.35 v 0 c -1.23,0 -1.84,-0.38 -1.84,-1.13 z m 26.9,0.14 v 0 -0.36 l 0.09,-0.36 0.21,-0.69 c 0.19,-0.73 0.28,-2.26 0.28,-4.61 v 0 l 0.21,-5.63 c 0,-1.13 -0.03,-1.81 -0.07,-2.07 -0.05,-0.25 -0.14,-0.54 -0.25,-0.87 -0.13,-0.33 -0.19,-0.65 -0.19,-0.95 v 0 c 0,-0.74 2.03,-1.11 6.08,-1.11 v 0 h 2.79 c 1.39,0 2.07,0.47 2.07,1.41 v 0 c 0,0.31 -0.09,0.53 -0.28,0.69 -0.19,0.16 -0.42,0.24 -0.7,0.24 -0.29,0 -0.8,-0.04 -1.53,-0.12 -0.75,-0.06 -1.56,-0.1 -2.45,-0.1 -0.9,0 -1.51,0.22 -1.86,0.65 v 0 c -0.44,0.57 -0.67,1.59 -0.67,3.05 v 0 c 0,0.63 0.19,1.08 0.57,1.33 0.37,0.27 1.07,0.39 2.07,0.39 v 0 l 1.89,-0.33 c 0.92,0 1.37,0.42 1.37,1.25 v 0 c 0,0.48 -0.1,0.87 -0.31,1.17 -0.22,0.29 -0.47,0.44 -0.77,0.44 -0.3,0 -0.71,-0.05 -1.23,-0.15 -0.52,-0.1 -0.94,-0.16 -1.25,-0.16 v 0 c -1.1,0 -1.79,0.16 -2.11,0.46 -0.32,0.31 -0.47,1.03 -0.47,2.19 0,1.15 0.15,2 0.47,2.56 0.3,0.57 0.91,0.85 1.83,0.85 v 0 c 1.25,0 2.33,-0.09 3.26,-0.27 0.91,-0.17 1.46,-0.26 1.62,-0.26 v 0 c 0.63,0 0.93,0.24 0.93,0.71 v 0 0.32 c 0,0.71 -0.46,1.15 -1.36,1.34 v 0 c -0.67,0.14 -2.23,0.2 -4.71,0.2 v 0 h -0.48 c -2.02,0 -3.36,-0.08 -4.04,-0.27 -0.67,-0.2 -1.01,-0.5 -1.01,-0.94 z m 23.78,-0.64 v 0 c 0,-0.21 0.1,-0.54 0.3,-0.99 0.19,-0.44 0.32,-0.85 0.37,-1.23 0.04,-0.38 0.06,-1.26 0.06,-2.62 v 0 -3.6 l -0.01,-0.38 c -0.01,-0.26 -0.01,-0.51 -0.01,-0.76 v 0 l -0.04,-1.5 -0.03,-0.74 c -0.01,-0.24 -0.01,-0.61 -0.01,-1.08 0,-0.47 -0.04,-0.94 -0.12,-1.42 -0.09,-0.48 -0.13,-0.77 -0.13,-0.89 v 0 c 0,-0.33 0.33,-0.56 0.99,-0.67 0.66,-0.12 1.81,-0.18 3.48,-0.18 v 0 h 0.78 c 3.24,0 5.26,0.98 6.07,2.93 v 0 c 0.22,0.52 0.32,1.16 0.32,1.91 0,0.76 -0.15,1.45 -0.44,2.04 -0.3,0.61 -0.75,1.23 -1.34,1.86 -0.59,0.63 -0.9,1.15 -0.9,1.57 0,0.42 0.37,1.27 1.11,2.55 0.72,1.28 1.27,2.12 1.61,2.49 v 0 c 0.67,0.71 1.01,1.21 1.01,1.49 v 0 0.22 c 0,0.4 -0.31,0.6 -0.94,0.6 v 0 h -0.3 c -0.57,0 -1.11,-0.25 -1.59,-0.76 v 0 c -0.28,-0.29 -0.87,-1.21 -1.77,-2.72 -0.91,-1.51 -1.41,-2.31 -1.52,-2.42 v 0 c -0.53,-0.6 -1.11,-0.89 -1.73,-0.89 -0.63,0 -1.11,0.33 -1.43,1 v 0 c -0.16,0.33 -0.24,0.83 -0.24,1.49 0,0.66 0.05,1.27 0.17,1.84 0.11,0.57 0.16,0.9 0.16,0.99 v 0 c 0,0.49 -0.2,0.86 -0.58,1.09 -0.4,0.23 -0.89,0.34 -1.47,0.34 -0.59,0 -0.99,-0.09 -1.22,-0.26 v 0 c -0.41,-0.32 -0.61,-0.75 -0.61,-1.3 z m 3.37,-8.96 -0.01,0.35 c 0,0.59 0.08,0.96 0.22,1.12 0.14,0.17 0.47,0.24 0.96,0.24 v 0 h 0.32 c 1.33,0 2.4,-0.3 3.19,-0.92 0.78,-0.63 1.18,-1.45 1.18,-2.48 v 0 -0.62 c 0,-0.92 -0.31,-1.65 -0.89,-2.2 -0.6,-0.54 -1.44,-0.81 -2.49,-0.81 v 0 h -0.44 l -0.12,0.01 -0.43,0.03 c -0.15,0.01 -0.25,0.02 -0.32,0.02 v 0 c -0.72,0 -1.08,0.35 -1.08,1.03 v 0 l -0.03,0.33 -0.03,0.47 c 0,0.08 0,0.15 0,0.23 v 0 l -0.01,0.13 v 0.58 l -0.02,0.36 z m 37.05,2.58 v 0 -0.42 c 0,-1.22 0.18,-2.43 0.53,-3.61 v 0 c 0.7,-2.3 2.05,-3.93 4.05,-4.89 v 0 c 1.07,-0.49 2.31,-0.75 3.74,-0.75 v 0 c 2.29,0 3.77,0.55 4.41,1.64 v 0 c 0.27,0.46 0.41,0.87 0.41,1.21 v 0 c 0,0.73 -0.25,1.1 -0.77,1.1 v 0 c -0.17,0 -0.52,-0.19 -1.1,-0.58 -0.57,-0.4 -1.13,-0.69 -1.7,-0.88 -0.57,-0.19 -1.22,-0.28 -1.94,-0.28 -0.72,0 -1.42,0.21 -2.11,0.6 v 0 c -1.68,0.99 -2.54,3.11 -2.54,6.36 v 0 c 0,3.26 0.98,5.36 2.95,6.28 v 0 c 0.61,0.3 1.42,0.44 2.42,0.44 1.01,0 2.24,-0.42 3.69,-1.26 v 0 c 0.39,-0.23 0.71,-0.34 0.97,-0.34 v 0 c 0.35,0 0.52,0.22 0.52,0.68 v 0 c 0,0.24 -0.15,0.57 -0.44,0.98 -0.29,0.42 -0.7,0.77 -1.21,1.07 v 0 c -1.19,0.69 -2.56,1.04 -4.11,1.04 v 0 h -0.41 c -1.09,0 -2.12,-0.21 -3.08,-0.63 v 0 c -1.87,-0.79 -3.15,-2.32 -3.82,-4.55 v 0 c -0.31,-1.02 -0.46,-2.08 -0.46,-3.21 z m 24.95,0.02 v 0 -0.58 c 0,-1.23 0.18,-2.47 0.53,-3.68 v 0 c 0.34,-1.24 0.89,-2.26 1.64,-3.12 v 0 c 1.41,-1.61 3.2,-2.41 5.4,-2.41 v 0 h 0.57 c 0.87,0 1.77,0.21 2.73,0.61 v 0 c 1.9,0.8 3.21,2.34 3.92,4.61 v 0 c 0.34,1.07 0.51,2.16 0.51,3.28 v 0 0.87 c 0,1.18 -0.19,2.38 -0.57,3.58 v 0 c -0.73,2.27 -2.05,3.85 -3.99,4.7 v 0 c -1.04,0.47 -2.1,0.7 -3.17,0.7 v 0 h -0.28 c -2.2,0 -3.99,-0.83 -5.37,-2.48 v 0 c -0.58,-0.7 -1.05,-1.59 -1.39,-2.69 -0.35,-1.1 -0.53,-2.23 -0.53,-3.39 z m 2.78,-0.85 v 0.65 c 0,1.89 0.35,3.44 1.08,4.64 v 0 c 0.42,0.72 0.95,1.26 1.58,1.63 0.63,0.38 1.21,0.57 1.74,0.57 v 0 h 0.6 c 0.65,0 1.26,-0.18 1.82,-0.53 v 0 c 1.05,-0.68 1.79,-1.78 2.19,-3.32 v 0 c 0.28,-1.05 0.42,-2.13 0.42,-3.26 v 0 -0.43 c 0,-0.04 0,-0.06 0,-0.1 v 0 c 0,-0.88 -0.1,-1.78 -0.32,-2.69 v 0 c -0.39,-1.77 -1.13,-3 -2.2,-3.69 v 0 c -0.63,-0.39 -1.27,-0.58 -1.93,-0.58 v 0 h -0.41 c -0.57,0 -1.17,0.17 -1.77,0.51 v 0 c -1.1,0.62 -1.89,1.73 -2.37,3.32 v 0 c -0.29,0.96 -0.43,2.05 -0.43,3.28 z m 24.43,8.13 -0.04,-0.27 v -0.41 c 0,-0.37 0.1,-0.7 0.29,-0.96 0.19,-0.27 0.48,-0.41 0.85,-0.41 v 0 c 0.11,-0.02 0.19,-0.04 0.22,-0.04 v 0 l 0.28,-0.02 h 0.17 c 0.1,0.02 0.28,0.04 0.54,0.04 0.24,0 0.47,0.14 0.66,0.4 0.19,0.28 0.29,0.61 0.29,1 v 0 0.3 l -0.01,0.05 v 0.11 c -0.02,0.07 -0.03,0.13 -0.03,0.17 v 0 c 0,0.37 -0.14,0.67 -0.39,0.89 -0.27,0.21 -0.66,0.33 -1.16,0.33 v 0 h -0.18 c -1,0 -1.49,-0.4 -1.49,-1.18 z"
   stroke-linecap="round"
   id="path3" />
</g>
</g>
</g>
</svg>
